<svg xmlns="http://www.w3.org/2000/svg" style="display: none;"><symbol id="after-effects" viewBox="0 0 52 52"><title>after-effects</title><path style="fill:#3A3375;" d="M40.824,52H11.176C5.003,52,0,46.997,0,40.824V11.176C0,5.003,5.003,0,11.176,0h29.649 C46.997,0,52,5.003,52,11.176v29.649C52,46.997,46.997,52,40.824,52z"/><g> <path style="fill:#E7ADFB;" d="M27.44,39H24.2l-2.76-9.04h-8.32L10.48,39H7.36l8.24-28h3.32L27.44,39z M20.72,27l-3.48-11.36 L13.88,27H20.72z"/> <path style="fill:#E7ADFB;" d="M31.48,33.48c0,2.267,1.333,3.399,4,3.399c1.653,0,3.466-0.546,5.44-1.64L42,37.6 c-2.054,1.254-4.2,1.881-6.44,1.881c-4.64,0-6.96-1.946-6.96-5.841V25.44c0-2.16,0.673-3.841,2.02-5.04 c1.346-1.2,3.126-1.801,5.34-1.801s3.94,0.594,5.18,1.78c1.24,1.187,1.86,2.834,1.86,4.94V30.8L31.48,31.4V33.48z M40.08,28.24 v-3.08c0-1.413-0.44-2.42-1.32-3.021c-0.88-0.6-1.907-0.899-3.08-0.899c-1.174,0-2.167,0.359-2.98,1.08 c-0.814,0.72-1.22,1.773-1.22,3.16v3.199L40.08,28.24z"/> </g></symbol><symbol id="indesign" viewBox="0 0 52 52"><title>indesign</title><path style="fill:#6F2B41;" d="M40.824,52H11.176C5.003,52,0,46.997,0,40.824V11.176C0,5.003,5.003,0,11.176,0h29.649 C46.997,0,52,5.003,52,11.176v29.649C52,46.997,46.997,52,40.824,52z"/><g> <path style="fill:#FF70BD;" d="M18.08,39H15.2V13.72l-2.64-0.08V11h5.52V39z"/> <path style="fill:#FF70BD;" d="M27.68,19.4c1.173-0.507,2.593-0.761,4.26-0.761s3.073,0.374,4.22,1.12V11h2.88v28 c-2.293,0.32-4.414,0.48-6.36,0.48c-1.947,0-3.707-0.4-5.28-1.2c-2.08-1.066-3.12-2.92-3.12-5.561v-7.56 C24.28,22.36,25.413,20.44,27.68,19.4z M36.16,22.52c-1.387-0.746-2.907-1.119-4.56-1.119c-1.574,0-2.714,0.406-3.42,1.22 c-0.707,0.813-1.06,1.847-1.06,3.1v7.12c0,1.227,0.44,2.188,1.32,2.88C29.4,36.44,30.586,36.8,32,36.8 c1.413,0,2.8-0.106,4.16-0.319V22.52z"/> </g></symbol><symbol id="dreamweaver" viewBox="0 0 52 52"><title>dreamweaver</title><path style="fill:#255C26;" d="M40.824,52H11.176C5.003,52,0,46.997,0,40.824V11.176C0,5.003,5.003,0,11.176,0h29.649 C46.997,0,52,5.003,52,11.176v29.649C52,46.997,46.997,52,40.824,52z"/><g> <path style="fill:#25EB00;" d="M12.521,39H4.2V10.96h7.521c3.013,0,5.313,0.827,6.899,2.48S21,17.294,21,20.04V31 C21,36.334,18.174,39,12.521,39z M18.12,31.4V19.64c0-2-0.58-3.486-1.74-4.46c-1.159-0.973-2.579-1.46-4.26-1.46H7.08V36.4h4.8 c2.96,0,4.854-0.787,5.681-2.36C17.934,33.347,18.12,32.467,18.12,31.4z"/> <path style="fill:#25EB00;" d="M42.721,39h-3.44l-3.68-14.56L31.88,39H28.44L22.2,18.96h3.08l4.84,16.08l4.12-16.08h2.84 l4.12,16.08l4.72-16.08H49L42.721,39z"/> </g></symbol><symbol id="flash" viewBox="0 0 52 52"><title>flash</title><path style="fill:#7A2F32;" d="M40.824,52H11.176C5.003,52,0,46.997,0,40.824V11.176C0,5.003,5.003,0,11.176,0h29.649 C46.997,0,52,5.003,52,11.176v29.649C52,46.997,46.997,52,40.824,52z"/><g> <path style="fill:#F63415;" d="M19.52,39h-2.88V11H30v2.8H19.52v8.681H26l-1.08,2.8h-5.4V39z"/> <path style="fill:#F63415;" d="M35,39h-2.881V11H35V39z"/> </g></symbol><symbol id="audition" viewBox="0 0 52 52"><title>audition</title><path style="fill:#2F5074;" d="M40.824,52H11.176C5.003,52,0,46.997,0,40.824V11.176C0,5.003,5.003,0,11.176,0h29.649 C46.997,0,52,5.003,52,11.176v29.649C52,46.997,46.997,52,40.824,52z"/><g> <path style="fill:#00F5F1;" d="M28.08,39h-3.24l-2.76-9.04h-8.32L11.12,39H8l8.239-28h3.32L28.08,39z M21.359,27L17.88,15.64 L14.52,27H21.359z"/> <path style="fill:#00F5F1;" d="M43.84,39h-2.76v-1.48c-1.147,1.28-2.694,1.921-4.641,1.921c-5.014,0-7.52-2.44-7.52-7.32V18.96 h2.88v13.16c0,3.066,1.546,4.6,4.64,4.6c3.014,0,4.521-1.546,4.521-4.64V18.96h2.88V39z"/> </g></symbol><symbol id="bridge" viewBox="0 0 52 52"><title>bridge</title><path style="fill:#69461E;" d="M40.824,52H11.176C5.003,52,0,46.997,0,40.824V11.176C0,5.003,5.003,0,11.176,0h29.649 C46.997,0,52,5.003,52,11.176v29.649C52,46.997,46.997,52,40.824,52z"/><g> <path style="fill:#FBC500;" d="M21.2,39h-9.08V11h8.64c2.187,0,3.94,0.574,5.26,1.72C27.34,13.867,28,15.627,28,18 c0,2.374-0.88,4.16-2.64,5.36c-0.027,0.026-0.04,0.054-0.04,0.08v0.04c1.173,0.533,2.153,1.394,2.94,2.579 c0.787,1.188,1.18,2.728,1.18,4.62c0,1.681-0.36,3.2-1.08,4.561C27.08,37.747,24.693,39,21.2,39z M15,22.48h5.16 c3.12,0,4.68-1.467,4.68-4.4c0-2.854-1.587-4.28-4.76-4.28H15V22.48z M15,36.32h5.56c1.786,0,3.18-0.413,4.18-1.24 c1-0.826,1.5-2.227,1.5-4.2c0-1.973-0.5-3.399-1.5-4.28c-1-0.88-2.207-1.319-3.62-1.319H15V36.32z"/> <path style="fill:#FBC500;" d="M36.16,39h-2.88V18.96h2.8V20c1.2-0.88,2.72-1.32,4.56-1.32c0.906,0,1.906,0.107,3,0.32l-0.72,2.72 c-0.934-0.293-1.899-0.439-2.899-0.439c-1,0-1.895,0.26-2.681,0.779c-0.787,0.521-1.18,1.221-1.18,2.101V39z"/> </g></symbol><symbol id="prelude" viewBox="0 0 52 52"><title>prelude</title><path style="fill:#193772;" d="M40.824,52H11.176C5.003,52,0,46.997,0,40.824V11.176C0,5.003,5.003,0,11.176,0h29.649 C46.997,0,52,5.003,52,11.176v29.649C52,46.997,46.997,52,40.824,52z"/><g> <path style="fill:#00D5EE;" d="M15.96,39h-2.88V11h9.64c2.613,0,4.554,0.813,5.82,2.44c1.267,1.626,1.9,3.76,1.9,6.399 c0,0.934-0.027,1.74-0.08,2.42c-0.054,0.681-0.22,1.534-0.5,2.561s-0.66,1.866-1.141,2.52c-0.479,0.654-1.213,1.227-2.199,1.72 C25.533,29.554,24.36,29.8,23,29.8h-7.04V39z M15.96,27h6.681c0.96,0,1.772-0.187,2.439-0.56c0.666-0.374,1.153-0.773,1.46-1.2 s0.547-1.04,0.72-1.84c0.174-0.801,0.267-1.4,0.28-1.801c0.014-0.399,0.021-0.973,0.021-1.72c0-4.053-1.694-6.08-5.08-6.08H15.96 V27z"/> <path style="fill:#00D5EE;" d="M38,39h-2.88V11H38V39z"/> </g></symbol><symbol id="fireworks" viewBox="0 0 52 52"><title>fireworks</title><path style="fill:#5E4F11;" d="M40.824,52H11.176C5.003,52,0,46.997,0,40.824V11.176C0,5.003,5.003,0,11.176,0h29.649 C46.997,0,52,5.003,52,11.176v29.649C52,46.997,46.997,52,40.824,52z"/><g> <path style="fill:#E7EB00;" d="M10.88,39H8V11h13.36v2.8H10.88v8.681h6.48l-1.08,2.8h-5.4V39z"/> <path style="fill:#E7EB00;" d="M39.72,39h-3.44L32.6,24.44L28.88,39h-3.44L19.2,18.96h3.08l4.84,16.08l4.12-16.08h2.84l4.12,16.08 l4.72-16.08H46L39.72,39z"/> </g></symbol><symbol id="fla-1" viewBox="0 0 56 56"><title>fla-1</title><path style="fill:#E9E9E0;" d="M36.985,0H7.963C7.155,0,6.5,0.655,6.5,1.926V55c0,0.345,0.655,1,1.463,1h40.074 c0.808,0,1.463-0.655,1.463-1V12.978c0-0.696-0.093-0.92-0.257-1.085L37.607,0.257C37.442,0.093,37.218,0,36.985,0z"/><polygon style="fill:#D9D7CA;" points="37.5,0.151 37.5,12 49.349,12 "/><path style="fill:#CE3C3B;" d="M48.037,56H7.963C7.155,56,6.5,55.345,6.5,54.537V39h43v15.537C49.5,55.345,48.845,56,48.037,56z"/><g> <path style="fill:#FFFFFF;" d="M17.246,44.168v3.172h4.211v1.121h-4.211V53h-1.668V42.924h6.303v1.244H17.246z"/> <path style="fill:#FFFFFF;" d="M25.299,42.924v8.832h4.635V53h-6.303V42.924H25.299z"/> <path style="fill:#FFFFFF;" d="M31.205,53l3.527-10.063h1.627L39.859,53h-1.695l-0.725-2.092h-3.787L32.914,53H31.205z M34.035,49.801h3.008l-1.49-4.348L34.035,49.801z"/> </g><circle style="fill:#C8BDB8;" cx="25.5" cy="16" r="2"/><g> <path style="fill:#C8BDB8;" d="M34.985,13.929l-0.707-0.707C32.201,11.144,29.438,10,26.5,10s-5.701,1.144-7.778,3.222 C16.644,15.299,15.5,18.062,15.5,21s1.144,5.701,3.222,7.778C20.799,30.856,23.562,32,26.5,32s5.701-1.144,7.778-3.222 l0.707-0.707L27.914,21L34.985,13.929z M32.118,28.032C30.528,29.308,28.567,30,26.5,30c-2.404,0-4.664-0.936-6.364-2.636 S17.5,23.404,17.5,21s0.936-4.664,2.636-6.364S24.096,12,26.5,12c2.067,0,4.028,0.692,5.618,1.968L25.086,21L32.118,28.032z"/> <path style="fill:#C8BDB8;" d="M35.5,20h-3c-0.553,0-1,0.447-1,1s0.447,1,1,1h3c0.553,0,1-0.447,1-1S36.053,20,35.5,20z"/> <path style="fill:#C8BDB8;" d="M41.5,20h-2c-0.553,0-1,0.447-1,1s0.447,1,1,1h2c0.553,0,1-0.447,1-1S42.053,20,41.5,20z"/> </g></symbol><symbol id="dwg" viewBox="0 0 56 56"><title>dwg</title><path style="fill:#E9E9E0;" d="M36.985,0H7.963C7.155,0,6.5,0.655,6.5,1.926V55c0,0.345,0.655,1,1.463,1h40.074 c0.808,0,1.463-0.655,1.463-1V12.978c0-0.696-0.093-0.92-0.257-1.085L37.607,0.257C37.442,0.093,37.218,0,36.985,0z"/><polygon style="fill:#D9D7CA;" points="37.5,0.151 37.5,12 49.349,12 "/><path style="fill:#8697CB;" d="M48.037,56H7.963C7.155,56,6.5,55.345,6.5,54.537V39h43v15.537C49.5,55.345,48.845,56,48.037,56z"/><g> <path style="fill:#FFFFFF;" d="M19.947,47.682c0,0.829-0.089,1.538-0.267,2.126s-0.403,1.08-0.677,1.477s-0.581,0.709-0.923,0.937 s-0.672,0.398-0.991,0.513c-0.319,0.114-0.611,0.187-0.875,0.219C15.95,52.984,15.754,53,15.627,53h-3.814V42.924h3.035 c0.848,0,1.593,0.135,2.235,0.403s1.176,0.627,1.6,1.073s0.74,0.955,0.95,1.524C19.842,46.494,19.947,47.08,19.947,47.682z M15.08,51.797c1.112,0,1.914-0.355,2.406-1.066s0.738-1.741,0.738-3.09c0-0.419-0.05-0.834-0.15-1.244 c-0.101-0.41-0.294-0.781-0.581-1.114s-0.677-0.602-1.169-0.807s-1.13-0.308-1.914-0.308h-0.957v7.629H15.08z"/> <path style="fill:#FFFFFF;" d="M35,42.924l-2.721,10.131h-2.133l-1.654-7.602l-1.764,7.602h-2.146l-2.557-10.131h1.859 l1.777,8.695l1.914-8.695h1.859l1.777,8.695l1.928-8.695H35z"/> <path style="fill:#FFFFFF;" d="M44.57,47.805v3.896c-0.21,0.265-0.444,0.48-0.704,0.649s-0.533,0.308-0.82,0.417 S42.463,52.954,42.157,53s-0.608,0.068-0.909,0.068c-0.602,0-1.155-0.109-1.661-0.328s-0.948-0.542-1.326-0.971 c-0.378-0.429-0.675-0.966-0.889-1.613c-0.214-0.647-0.321-1.395-0.321-2.242s0.107-1.593,0.321-2.235 c0.214-0.643,0.51-1.178,0.889-1.606c0.378-0.429,0.822-0.754,1.333-0.978s1.062-0.335,1.654-0.335 c0.547,0,1.058,0.091,1.531,0.273s0.897,0.456,1.271,0.82l-1.135,1.012c-0.219-0.265-0.47-0.456-0.752-0.574 s-0.574-0.178-0.875-0.178c-0.337,0-0.658,0.063-0.964,0.191s-0.579,0.344-0.82,0.649s-0.431,0.699-0.567,1.183 c-0.137,0.483-0.21,1.075-0.219,1.777c0.009,0.684,0.08,1.276,0.212,1.777c0.132,0.501,0.314,0.911,0.547,1.23 s0.497,0.556,0.793,0.711s0.608,0.232,0.937,0.232c0.101,0,0.234-0.007,0.403-0.021s0.337-0.036,0.506-0.068 s0.33-0.075,0.485-0.13s0.269-0.132,0.342-0.232v-2.488h-1.709v-1.121H44.57z"/> </g><rect x="12.5" y="13" style="fill:#C8BDB8;" width="15" height="15.065"/><rect x="34.5" y="14" style="fill:#ADA29E;" width="2" height="7"/><rect x="34.5" y="29" style="fill:#ADA29E;" width="2" height="7"/><path style="fill:#ADA29E;" d="M40.5,30h-10V20h10V30z M32.5,28h6v-6h-6V28z"/><rect x="39.5" y="24" style="fill:#ADA29E;" width="7" height="2"/><rect x="24.5" y="24" style="fill:#ADA29E;" width="7" height="2"/></symbol><symbol id="dbf" viewBox="0 0 56 56"><title>dbf</title><path style="fill:#E9E9E0;" d="M36.985,0H7.963C7.155,0,6.5,0.655,6.5,1.926V55c0,0.345,0.655,1,1.463,1h40.074 c0.808,0,1.463-0.655,1.463-1V12.978c0-0.696-0.093-0.92-0.257-1.085L37.607,0.257C37.442,0.093,37.218,0,36.985,0z"/><polygon style="fill:#D9D7CA;" points="37.5,0.151 37.5,12 49.349,12 "/><path style="fill:#E96360;" d="M48.037,56H7.963C7.155,56,6.5,55.345,6.5,54.537V39h43v15.537C49.5,55.345,48.845,56,48.037,56z"/><g> <path style="fill:#FFFFFF;" d="M22.947,47.682c0,0.829-0.089,1.538-0.267,2.126s-0.403,1.08-0.677,1.477s-0.581,0.709-0.923,0.937 s-0.672,0.398-0.991,0.513c-0.319,0.114-0.611,0.187-0.875,0.219C18.95,52.984,18.754,53,18.627,53h-3.814V42.924h3.035 c0.848,0,1.593,0.135,2.235,0.403s1.176,0.627,1.6,1.073s0.74,0.955,0.95,1.524C22.842,46.494,22.947,47.08,22.947,47.682z M18.08,51.797c1.112,0,1.914-0.355,2.406-1.066s0.738-1.741,0.738-3.09c0-0.419-0.05-0.834-0.15-1.244 c-0.101-0.41-0.294-0.781-0.581-1.114s-0.677-0.602-1.169-0.807s-1.13-0.308-1.914-0.308h-0.957v7.629H18.08z"/> <path style="fill:#FFFFFF;" d="M30.098,47.695c0.209,0.027,0.433,0.096,0.67,0.205c0.237,0.109,0.458,0.265,0.663,0.465 s0.376,0.444,0.513,0.731s0.205,0.617,0.205,0.991c0,0.456-0.068,0.848-0.205,1.176s-0.308,0.6-0.513,0.813 s-0.429,0.383-0.67,0.506c-0.242,0.123-0.474,0.217-0.697,0.28c-0.224,0.063-0.422,0.103-0.595,0.116 C29.295,52.993,29.182,53,29.127,53H25.34V42.924h2.898c0.428,0,0.843,0.05,1.244,0.15c0.401,0.101,0.756,0.26,1.066,0.479 c0.31,0.219,0.556,0.504,0.738,0.854c0.182,0.351,0.273,0.768,0.273,1.251c0,0.282-0.046,0.54-0.137,0.772 c-0.091,0.232-0.205,0.436-0.342,0.608s-0.294,0.316-0.472,0.431S30.262,47.659,30.098,47.695z M28.197,47.23 c0.2,0,0.405-0.005,0.615-0.014c0.209-0.009,0.405-0.06,0.588-0.15c0.182-0.091,0.33-0.246,0.444-0.465 c0.114-0.219,0.171-0.533,0.171-0.943c0-0.164-0.023-0.335-0.068-0.513c-0.046-0.178-0.137-0.34-0.273-0.485 s-0.333-0.265-0.588-0.355c-0.255-0.091-0.593-0.137-1.012-0.137H26.98v3.063h0.068H28.197z M29.031,51.797 c0.483,0,0.861-0.155,1.135-0.465s0.41-0.725,0.41-1.244c0-0.492-0.142-0.907-0.424-1.244c-0.283-0.337-0.697-0.506-1.244-0.506 H26.98v3.459H29.031z"/> <path style="fill:#FFFFFF;" d="M36.168,44.168v3.172h4.211v1.121h-4.211V53H34.5V42.924h6.303v1.244H36.168z"/> </g><path style="fill:#C8BDB8;" d="M24.5,16v-4h-12v4v2v2v2v2v2v2v2v4h10h2h21v-4v-2v-2v-2v-2v-2v-4H24.5z M14.5,14h8v2h-8V14z M14.5,18h8v2h-8V18z M14.5,22h8v2h-8V22z M14.5,26h8v2h-8V26z M22.5,32h-8v-2h8V32z M43.5,32h-19v-2h19V32z M43.5,28h-19v-2h19V28 z M43.5,24h-19v-2h19V24z M24.5,20v-2h19v2H24.5z"/></symbol><symbol id="rtf" viewBox="0 0 56 56"><title>rtf</title><path style="fill:#E9E9E0;" d="M36.985,0H7.963C7.155,0,6.5,0.655,6.5,1.926V55c0,0.345,0.655,1,1.463,1h40.074 c0.808,0,1.463-0.655,1.463-1V12.978c0-0.696-0.093-0.92-0.257-1.085L37.607,0.257C37.442,0.093,37.218,0,36.985,0z"/><polygon style="fill:#D9D7CA;" points="37.5,0.151 37.5,12 49.349,12 "/><path style="fill:#90BAE1;" d="M48.037,56H7.963C7.155,56,6.5,55.345,6.5,54.537V39h43v15.537C49.5,55.345,48.845,56,48.037,56z"/><g> <path style="fill:#FFFFFF;" d="M20.83,53l-1.9-3.65c-0.027,0-0.064,0.002-0.109,0.007c-0.046,0.005-0.116,0.007-0.212,0.007 s-0.241,0-0.438,0s-0.463,0-0.8,0V53H15.73V42.924h2.898c0.428,0,0.852,0.068,1.271,0.205c0.419,0.137,0.795,0.342,1.128,0.615 s0.602,0.604,0.807,0.991s0.308,0.822,0.308,1.306c0,0.729-0.169,1.349-0.506,1.859c-0.338,0.511-0.793,0.889-1.367,1.135 L22.566,53H20.83z M17.371,48.16h1.49c0.2,0,0.4-0.034,0.602-0.103c0.2-0.068,0.383-0.18,0.547-0.335s0.296-0.371,0.396-0.649 c0.1-0.278,0.15-0.622,0.15-1.032c0-0.164-0.023-0.354-0.068-0.567c-0.046-0.214-0.139-0.419-0.28-0.615s-0.34-0.36-0.595-0.492 c-0.256-0.132-0.593-0.198-1.012-0.198h-1.23V48.16z"/> <path style="fill:#FFFFFF;" d="M31.891,42.924v1.121h-3.008V53h-1.654v-8.955h-3.008v-1.121H31.891z"/> <path style="fill:#FFFFFF;" d="M35.555,44.168v3.172h4.211v1.121h-4.211V53h-1.668V42.924h6.303v1.244H35.555z"/> </g><g> <path style="fill:#C8BDB8;" d="M12.5,13h6c0.553,0,1-0.448,1-1s-0.447-1-1-1h-6c-0.553,0-1,0.448-1,1S11.947,13,12.5,13z"/> <path style="fill:#C8BDB8;" d="M12.5,18h9c0.553,0,1-0.448,1-1s-0.447-1-1-1h-9c-0.553,0-1,0.448-1,1S11.947,18,12.5,18z"/> <path style="fill:#C8BDB8;" d="M25.5,18c0.26,0,0.52-0.11,0.71-0.29c0.18-0.19,0.29-0.45,0.29-0.71c0-0.26-0.11-0.52-0.29-0.71 c-0.38-0.37-1.04-0.37-1.42,0c-0.181,0.19-0.29,0.44-0.29,0.71s0.109,0.52,0.29,0.71C24.979,17.89,25.24,18,25.5,18z"/> <path style="fill:#C8BDB8;" d="M29.5,18h8c0.553,0,1-0.448,1-1s-0.447-1-1-1h-8c-0.553,0-1,0.448-1,1S28.947,18,29.5,18z"/> <path style="fill:#C8BDB8;" d="M11.79,31.29c-0.181,0.19-0.29,0.44-0.29,0.71s0.109,0.52,0.29,0.71 C11.979,32.89,12.229,33,12.5,33c0.27,0,0.52-0.11,0.71-0.29c0.18-0.19,0.29-0.45,0.29-0.71c0-0.26-0.11-0.52-0.29-0.71 C12.84,30.92,12.16,30.92,11.79,31.29z"/> <path style="fill:#C8BDB8;" d="M24.5,31h-8c-0.553,0-1,0.448-1,1s0.447,1,1,1h8c0.553,0,1-0.448,1-1S25.053,31,24.5,31z"/> <path style="fill:#C8BDB8;" d="M41.5,18h2c0.553,0,1-0.448,1-1s-0.447-1-1-1h-2c-0.553,0-1,0.448-1,1S40.947,18,41.5,18z"/> <path style="fill:#C8BDB8;" d="M12.5,23h22c0.553,0,1-0.448,1-1s-0.447-1-1-1h-22c-0.553,0-1,0.448-1,1S11.947,23,12.5,23z"/> <path style="fill:#C8BDB8;" d="M43.5,21h-6c-0.553,0-1,0.448-1,1s0.447,1,1,1h6c0.553,0,1-0.448,1-1S44.053,21,43.5,21z"/> <path style="fill:#C8BDB8;" d="M12.5,28h4c0.553,0,1-0.448,1-1s-0.447-1-1-1h-4c-0.553,0-1,0.448-1,1S11.947,28,12.5,28z"/> <path style="fill:#C8BDB8;" d="M30.5,26h-10c-0.553,0-1,0.448-1,1s0.447,1,1,1h10c0.553,0,1-0.448,1-1S31.053,26,30.5,26z"/> <path style="fill:#C8BDB8;" d="M43.5,26h-9c-0.553,0-1,0.448-1,1s0.447,1,1,1h9c0.553,0,1-0.448,1-1S44.053,26,43.5,26z"/> </g></symbol><symbol id="file" viewBox="0 0 56 56"><title>file</title><path style="fill:#E9E9E0;" d="M36.985,0H7.963C7.155,0,6.5,0.655,6.5,1.926V55c0,0.345,0.655,1,1.463,1h40.074 c0.808,0,1.463-0.655,1.463-1V12.978c0-0.696-0.093-0.92-0.257-1.085L37.607,0.257C37.442,0.093,37.218,0,36.985,0z"/><polygon style="fill:#D9D7CA;" points="37.5,0.151 37.5,12 49.349,12 "/><path style="fill:#C8BDB8;" d="M48.037,56H7.963C7.155,56,6.5,55.345,6.5,54.537V39h43v15.537C49.5,55.345,48.845,56,48.037,56z"/><circle style="fill:#FFFFFF;" cx="18.5" cy="47" r="3"/><circle style="fill:#FFFFFF;" cx="28.5" cy="47" r="3"/><circle style="fill:#FFFFFF;" cx="38.5" cy="47" r="3"/></symbol><symbol id="exe" viewBox="0 0 56 56"><title>exe</title><path style="fill:#E9E9E0;" d="M36.985,0H7.963C7.155,0,6.5,0.655,6.5,1.926V55c0,0.345,0.655,1,1.463,1h40.074 c0.808,0,1.463-0.655,1.463-1V12.978c0-0.696-0.093-0.92-0.257-1.085L37.607,0.257C37.442,0.093,37.218,0,36.985,0z"/><polygon style="fill:#D9D7CA;" points="37.5,0.151 37.5,12 49.349,12 "/><path style="fill:#9777A8;" d="M48.037,56H7.963C7.155,56,6.5,55.345,6.5,54.537V39h43v15.537C49.5,55.345,48.845,56,48.037,56z"/><g> <path style="fill:#FFFFFF;" d="M17.082,44.168v3.172h4.211v1.121h-4.211v3.295h4.635V53h-6.303V42.924h6.303v1.244H17.082z"/> <path style="fill:#FFFFFF;" d="M28.58,48.105L31.137,53h-1.9l-1.6-3.801H27.5L25.777,53h-1.9l2.557-4.895l-2.721-5.182h1.873 l1.777,4.102H27.5l1.928-4.102h1.873L28.58,48.105z"/> <path style="fill:#FFFFFF;" d="M35.266,44.168v3.172h4.211v1.121h-4.211v3.295H39.9V53h-6.303V42.924H39.9v1.244H35.266z"/> </g><path style="fill:#9777A8;" d="M33.5,32c-0.099,0-0.2-0.015-0.299-0.046c-0.527-0.165-0.821-0.726-0.656-1.253l5-16 c0.165-0.527,0.726-0.821,1.253-0.656c0.527,0.165,0.821,0.726,0.656,1.253l-5,16C34.321,31.726,33.926,32,33.5,32z"/><circle style="fill:#9777A8;" cx="29" cy="19.5" r="1.5"/><circle style="fill:#9777A8;" cx="29" cy="26.5" r="1.5"/><path style="fill:#9777A8;" d="M23.5,30h-2c-3.86,0-7-3.14-7-7s3.14-7,7-7h2c0.552,0,1,0.448,1,1s-0.448,1-1,1h-2 c-2.757,0-5,2.243-5,5s2.243,5,5,5h2c0.552,0,1,0.448,1,1S24.052,30,23.5,30z"/></symbol><symbol id="search" viewBox="0 0 56 56"><title>search</title><path style="fill:#E9E9E0;" d="M36.985,0H7.963C7.155,0,6.5,0.655,6.5,1.926V55c0,0.345,0.655,1,1.463,1h40.074 c0.808,0,1.463-0.655,1.463-1V12.978c0-0.696-0.093-0.92-0.257-1.085L37.607,0.257C37.442,0.093,37.218,0,36.985,0z"/><polygon style="fill:#D9D7CA;" points="37.5,0.151 37.5,12 49.349,12 "/><g> <circle style="fill:#FFFFFF;" cx="25.5" cy="25" r="10"/> <path style="fill:#556080;" d="M25.5,36c-6.065,0-11-4.935-11-11s4.935-11,11-11s11,4.935,11,11S31.565,36,25.5,36z M25.5,16 c-4.963,0-9,4.037-9,9s4.037,9,9,9s9-4.037,9-9S30.463,16,25.5,16z"/> </g><path style="fill:#556080;" d="M42.5,45c-0.256,0-0.512-0.098-0.707-0.293l-11-11c-0.391-0.391-0.391-1.023,0-1.414 s1.023-0.391,1.414,0l11,11c0.391,0.391,0.391,1.023,0,1.414C43.012,44.902,42.756,45,42.5,45z"/><path style="fill:#D1D4D1;" d="M25.5,22h-6c-0.553,0-1-0.447-1-1s0.447-1,1-1h6c0.553,0,1,0.447,1,1S26.053,22,25.5,22z"/><path style="fill:#D1D4D1;" d="M30.5,22h-2c-0.553,0-1-0.447-1-1s0.447-1,1-1h2c0.553,0,1,0.447,1,1S31.053,22,30.5,22z"/><path style="fill:#D1D4D1;" d="M24.5,30h-2c-0.553,0-1-0.447-1-1s0.447-1,1-1h2c0.553,0,1,0.447,1,1S25.053,30,24.5,30z"/><path style="fill:#D1D4D1;" d="M30.5,30h-2c-0.553,0-1-0.447-1-1s0.447-1,1-1h2c0.553,0,1,0.447,1,1S31.053,30,30.5,30z"/><path style="fill:#D1D4D1;" d="M23.5,26h-4c-0.553,0-1-0.447-1-1s0.447-1,1-1h4c0.553,0,1,0.447,1,1S24.053,26,23.5,26z"/><path style="fill:#D1D4D1;" d="M32.5,26h-5c-0.553,0-1-0.447-1-1s0.447-1,1-1h5c0.553,0,1,0.447,1,1S33.053,26,32.5,26z"/></symbol><symbol id="csv" viewBox="0 0 56 56"><title>csv</title><path style="fill:#E9E9E0;" d="M36.985,0H7.963C7.155,0,6.5,0.655,6.5,1.926V55c0,0.345,0.655,1,1.463,1h40.074 c0.808,0,1.463-0.655,1.463-1V12.978c0-0.696-0.093-0.92-0.257-1.085L37.607,0.257C37.442,0.093,37.218,0,36.985,0z"/><polygon style="fill:#D9D7CA;" points="37.5,0.151 37.5,12 49.349,12 "/><path style="fill:#F36FA0;" d="M48.037,56H7.963C7.155,56,6.5,55.345,6.5,54.537V39h43v15.537C49.5,55.345,48.845,56,48.037,56z"/><g> <path style="fill:#FFFFFF;" d="M21.58,51.975c-0.374,0.364-0.798,0.638-1.271,0.82c-0.474,0.183-0.984,0.273-1.531,0.273 c-0.602,0-1.155-0.109-1.661-0.328s-0.948-0.542-1.326-0.971c-0.378-0.429-0.675-0.966-0.889-1.613 c-0.214-0.647-0.321-1.395-0.321-2.242s0.107-1.593,0.321-2.235c0.214-0.643,0.51-1.178,0.889-1.606 c0.378-0.429,0.822-0.754,1.333-0.978c0.51-0.224,1.062-0.335,1.654-0.335c0.547,0,1.057,0.091,1.531,0.273 c0.474,0.183,0.897,0.456,1.271,0.82l-1.135,1.012c-0.228-0.265-0.481-0.456-0.759-0.574c-0.278-0.118-0.567-0.178-0.868-0.178 c-0.337,0-0.659,0.063-0.964,0.191c-0.306,0.128-0.579,0.344-0.82,0.649c-0.242,0.306-0.431,0.699-0.567,1.183 s-0.21,1.075-0.219,1.777c0.009,0.684,0.08,1.267,0.212,1.75c0.132,0.483,0.314,0.877,0.547,1.183s0.497,0.528,0.793,0.67 c0.296,0.142,0.608,0.212,0.937,0.212s0.636-0.06,0.923-0.178s0.549-0.31,0.786-0.574L21.58,51.975z"/> <path style="fill:#FFFFFF;" d="M29.633,50.238c0,0.364-0.075,0.718-0.226,1.06s-0.362,0.643-0.636,0.902s-0.611,0.467-1.012,0.622 c-0.401,0.155-0.857,0.232-1.367,0.232c-0.219,0-0.444-0.012-0.677-0.034s-0.467-0.062-0.704-0.116 c-0.237-0.055-0.463-0.13-0.677-0.226c-0.214-0.096-0.399-0.212-0.554-0.349l0.287-1.176c0.127,0.073,0.289,0.144,0.485,0.212 c0.196,0.068,0.398,0.132,0.608,0.191c0.209,0.06,0.419,0.107,0.629,0.144c0.209,0.036,0.405,0.055,0.588,0.055 c0.556,0,0.982-0.13,1.278-0.39c0.296-0.26,0.444-0.645,0.444-1.155c0-0.31-0.105-0.574-0.314-0.793 c-0.21-0.219-0.472-0.417-0.786-0.595s-0.654-0.355-1.019-0.533c-0.365-0.178-0.707-0.388-1.025-0.629 c-0.319-0.241-0.583-0.526-0.793-0.854c-0.21-0.328-0.314-0.738-0.314-1.23c0-0.446,0.082-0.843,0.246-1.189 s0.385-0.641,0.663-0.882c0.278-0.241,0.602-0.426,0.971-0.554s0.759-0.191,1.169-0.191c0.419,0,0.843,0.039,1.271,0.116 c0.428,0.077,0.774,0.203,1.039,0.376c-0.055,0.118-0.119,0.248-0.191,0.39c-0.073,0.142-0.142,0.273-0.205,0.396 c-0.064,0.123-0.119,0.226-0.164,0.308c-0.046,0.082-0.073,0.128-0.082,0.137c-0.055-0.027-0.116-0.063-0.185-0.109 s-0.167-0.091-0.294-0.137c-0.128-0.046-0.296-0.077-0.506-0.096c-0.21-0.019-0.479-0.014-0.807,0.014 c-0.183,0.019-0.355,0.07-0.52,0.157s-0.31,0.193-0.438,0.321c-0.128,0.128-0.228,0.271-0.301,0.431 c-0.073,0.159-0.109,0.313-0.109,0.458c0,0.364,0.104,0.658,0.314,0.882c0.209,0.224,0.469,0.419,0.779,0.588 c0.31,0.169,0.647,0.333,1.012,0.492c0.364,0.159,0.704,0.354,1.019,0.581s0.576,0.513,0.786,0.854 C29.528,49.261,29.633,49.7,29.633,50.238z"/> <path style="fill:#FFFFFF;" d="M34.035,53.055l-3.131-10.131h1.873l2.338,8.695l2.475-8.695h1.859l-3.281,10.131H34.035z"/> </g><path style="fill:#C8BDB8;" d="M23.5,16v-4h-12v4v2v2v2v2v2v2v2v4h10h2h21v-4v-2v-2v-2v-2v-2v-4H23.5z M13.5,14h8v2h-8V14z M13.5,18h8v2h-8V18z M13.5,22h8v2h-8V22z M13.5,26h8v2h-8V26z M21.5,32h-8v-2h8V32z M42.5,32h-19v-2h19V32z M42.5,28h-19v-2h19V28 z M42.5,24h-19v-2h19V24z M23.5,20v-2h19v2H23.5z"/></symbol><symbol id="json-file" viewBox="0 0 56 56"><title>json-file</title><path style="fill:#E9E9E0;" d="M36.985,0H7.963C7.155,0,6.5,0.655,6.5,1.926V55c0,0.345,0.655,1,1.463,1h40.074 c0.808,0,1.463-0.655,1.463-1V12.978c0-0.696-0.093-0.92-0.257-1.085L37.607,0.257C37.442,0.093,37.218,0,36.985,0z"/><polygon style="fill:#D9D7CA;" points="37.5,0.151 37.5,12 49.349,12 "/><path style="fill:#9777A8;" d="M48.037,56H7.963C7.155,56,6.5,55.345,6.5,54.537V39h43v15.537C49.5,55.345,48.845,56,48.037,56z"/><g> <path style="fill:#FFFFFF;" d="M17.021,42.719v7.848c0,0.474-0.087,0.873-0.26,1.196s-0.405,0.583-0.697,0.779 s-0.627,0.333-1.005,0.41c-0.378,0.077-0.768,0.116-1.169,0.116c-0.2,0-0.436-0.021-0.704-0.062s-0.547-0.104-0.834-0.191 s-0.563-0.185-0.827-0.294s-0.487-0.232-0.67-0.369l0.697-1.107c0.091,0.063,0.221,0.13,0.39,0.198s0.354,0.132,0.554,0.191 s0.41,0.111,0.629,0.157s0.424,0.068,0.615,0.068c0.483,0,0.868-0.094,1.155-0.28s0.439-0.504,0.458-0.95v-7.711H17.021z"/> <path style="fill:#FFFFFF;" d="M25.184,50.238c0,0.364-0.075,0.718-0.226,1.06s-0.362,0.643-0.636,0.902s-0.61,0.467-1.012,0.622 s-0.856,0.232-1.367,0.232c-0.219,0-0.444-0.012-0.677-0.034s-0.467-0.062-0.704-0.116c-0.237-0.055-0.463-0.13-0.677-0.226 s-0.398-0.212-0.554-0.349l0.287-1.176c0.128,0.073,0.289,0.144,0.485,0.212s0.398,0.132,0.608,0.191s0.419,0.107,0.629,0.144 s0.405,0.055,0.588,0.055c0.556,0,0.982-0.13,1.278-0.39s0.444-0.645,0.444-1.155c0-0.31-0.104-0.574-0.314-0.793 s-0.472-0.417-0.786-0.595s-0.654-0.355-1.019-0.533s-0.706-0.388-1.025-0.629s-0.583-0.526-0.793-0.854s-0.314-0.738-0.314-1.23 c0-0.446,0.082-0.843,0.246-1.189s0.385-0.641,0.663-0.882s0.602-0.426,0.971-0.554s0.759-0.191,1.169-0.191 c0.419,0,0.843,0.039,1.271,0.116s0.774,0.203,1.039,0.376c-0.055,0.118-0.118,0.248-0.191,0.39s-0.142,0.273-0.205,0.396 s-0.118,0.226-0.164,0.308s-0.073,0.128-0.082,0.137c-0.055-0.027-0.116-0.063-0.185-0.109s-0.166-0.091-0.294-0.137 s-0.296-0.077-0.506-0.096s-0.479-0.014-0.807,0.014c-0.183,0.019-0.355,0.07-0.52,0.157s-0.31,0.193-0.438,0.321 s-0.228,0.271-0.301,0.431s-0.109,0.313-0.109,0.458c0,0.364,0.104,0.658,0.314,0.882s0.47,0.419,0.779,0.588 s0.647,0.333,1.012,0.492s0.704,0.354,1.019,0.581s0.576,0.513,0.786,0.854S25.184,49.7,25.184,50.238z"/> <path style="fill:#FFFFFF;" d="M35.082,47.914c0,0.848-0.107,1.595-0.321,2.242s-0.511,1.185-0.889,1.613s-0.82,0.752-1.326,0.971 s-1.06,0.328-1.661,0.328s-1.155-0.109-1.661-0.328s-0.948-0.542-1.326-0.971s-0.675-0.966-0.889-1.613s-0.321-1.395-0.321-2.242 s0.107-1.593,0.321-2.235s0.511-1.178,0.889-1.606s0.82-0.754,1.326-0.978s1.06-0.335,1.661-0.335s1.155,0.111,1.661,0.335 s0.948,0.549,1.326,0.978s0.675,0.964,0.889,1.606S35.082,47.066,35.082,47.914z M30.844,51.729c0.337,0,0.658-0.066,0.964-0.198 s0.579-0.349,0.82-0.649s0.431-0.695,0.567-1.183s0.21-1.082,0.219-1.784c-0.009-0.684-0.08-1.265-0.212-1.743 s-0.314-0.873-0.547-1.183s-0.497-0.533-0.793-0.67s-0.608-0.205-0.937-0.205c-0.337,0-0.658,0.063-0.964,0.191 s-0.579,0.344-0.82,0.649s-0.431,0.699-0.567,1.183c-0.137,0.483-0.21,1.075-0.219,1.777c0.009,0.684,0.08,1.267,0.212,1.75 s0.314,0.877,0.547,1.183s0.497,0.528,0.793,0.67S30.516,51.729,30.844,51.729z"/> <path style="fill:#FFFFFF;" d="M44.68,42.924V53h-1.668l-3.951-6.945V53h-1.668V42.924h1.668l3.951,6.945v-6.945H44.68z"/> </g><g> <path style="fill:#9777A8;" d="M19.5,19v-4c0-0.551,0.448-1,1-1c0.553,0,1-0.448,1-1s-0.447-1-1-1c-1.654,0-3,1.346-3,3v4 c0,1.103-0.897,2-2,2c-0.553,0-1,0.448-1,1s0.447,1,1,1c1.103,0,2,0.897,2,2v4c0,1.654,1.346,3,3,3c0.553,0,1-0.448,1-1 s-0.447-1-1-1c-0.552,0-1-0.449-1-1v-4c0-1.2-0.542-2.266-1.382-3C18.958,21.266,19.5,20.2,19.5,19z"/> <circle style="fill:#9777A8;" cx="27.5" cy="18.5" r="1.5"/> <path style="fill:#9777A8;" d="M39.5,21c-1.103,0-2-0.897-2-2v-4c0-1.654-1.346-3-3-3c-0.553,0-1,0.448-1,1s0.447,1,1,1 c0.552,0,1,0.449,1,1v4c0,1.2,0.542,2.266,1.382,3c-0.84,0.734-1.382,1.8-1.382,3v4c0,0.551-0.448,1-1,1c-0.553,0-1,0.448-1,1 s0.447,1,1,1c1.654,0,3-1.346,3-3v-4c0-1.103,0.897-2,2-2c0.553,0,1-0.448,1-1S40.053,21,39.5,21z"/> <path style="fill:#9777A8;" d="M27.5,24c-0.553,0-1,0.448-1,1v3c0,0.552,0.447,1,1,1s1-0.448,1-1v-3 C28.5,24.448,28.053,24,27.5,24z"/> </g></symbol><symbol id="premiere" viewBox="0 0 52 52"><title>premiere</title><path style="fill:#653E66;" d="M40.824,52H11.176C5.003,52,0,46.997,0,40.824V11.176C0,5.003,5.003,0,11.176,0h29.649 C46.997,0,52,5.003,52,11.176v29.649C52,46.997,46.997,52,40.824,52z"/><g> <path style="fill:#F8A3FF;" d="M15.32,39h-2.88V11h9.64c2.613,0,4.554,0.813,5.82,2.44c1.267,1.626,1.9,3.76,1.9,6.399 c0,0.934-0.027,1.74-0.08,2.42c-0.054,0.681-0.22,1.534-0.5,2.561s-0.66,1.866-1.141,2.52c-0.479,0.654-1.213,1.227-2.199,1.72 c-0.987,0.494-2.16,0.74-3.521,0.74h-7.04V39z M15.32,27h6.681c0.96,0,1.772-0.187,2.439-0.56c0.666-0.374,1.153-0.773,1.46-1.2 s0.547-1.04,0.72-1.84C26.794,22.6,26.887,22,26.9,21.6c0.014-0.399,0.021-0.973,0.021-1.72c0-4.053-1.694-6.08-5.08-6.08H15.32 V27z"/> <path style="fill:#F8A3FF;" d="M36.521,39h-2.88V18.96h2.8V20c1.2-0.88,2.72-1.32,4.56-1.32c0.906,0,1.906,0.107,3,0.32 l-0.72,2.72c-0.934-0.293-1.899-0.439-2.899-0.439s-1.895,0.26-2.681,0.779c-0.787,0.521-1.18,1.221-1.18,2.101V39z"/> </g></symbol><symbol id="raw" viewBox="0 0 512 512"><title>raw</title><path style="fill:#E2E5E7;" d="M128,0c-17.6,0-32,14.4-32,32v448c0,17.6,14.4,32,32,32h320c17.6,0,32-14.4,32-32V128L352,0H128z"/><path style="fill:#B0B7BD;" d="M384,128h96L352,0v96C352,113.6,366.4,128,384,128z"/><polygon style="fill:#CAD1D8;" points="480,224 384,128 480,128 "/><path style="fill:#576D7E;" d="M416,416c0,8.8-7.2,16-16,16H48c-8.8,0-16-7.2-16-16V256c0-8.8,7.2-16,16-16h352c8.8,0,16,7.2,16,16 V416z"/><g> <path style="fill:#FFFFFF;" d="M94.912,375.68c0,11.12-17.024,11.504-17.024,0.256V303.28c0-4.48,3.472-7.808,7.68-7.808H119.6 c32.48,0,39.136,43.504,12.016,54.368l17.008,20.72c6.656,9.856-6.64,19.312-14.336,9.6l-19.312-27.632H94.912V375.68z M94.912,337.808H119.6c16.624,0,17.664-26.864,0-26.864H94.912V337.808z"/> <path style="fill:#FFFFFF;" d="M162.624,384c-4.096-2.32-6.656-6.912-4.096-12.288l36.704-71.76c3.456-6.784,12.672-7.04,15.872,0 l36.064,71.76c5.248,9.968-10.24,17.904-14.832,7.936l-5.648-11.264h-47.2l-5.504,11.264C171.952,384,167.216,384.912,162.624,384z M217.632,351.504l-14.448-31.6l-15.728,31.6H217.632z"/> <path style="fill:#FFFFFF;" d="M341.248,353.424l19.056-52.704c3.84-10.352,19.312-5.504,15.488,5.632l-25.328,68.704 c-2.32,7.296-4.48,9.472-8.832,9.472c-4.608,0-6.016-2.832-8.576-7.424L310.8,326.576l-21.248,49.76 c-2.304,5.36-4.464,8.432-9.072,8.432c-4.464,0-6.784-3.072-8.832-8.704l-24.816-69.712c-3.84-11.504,12.4-15.728,15.728-5.632 l18.944,52.704l22.64-52.704c3.056-7.808,11.12-8.192,14.448-0.368L341.248,353.424z"/> </g><path style="fill:#CAD1D8;" d="M400,432H96v16h304c8.8,0,16-7.2,16-16v-16C416,424.8,408.8,432,400,432z"/></symbol><symbol id="aac" viewBox="0 0 512 512"><title>aac</title><path style="fill:#E2E5E7;" d="M128,0c-17.6,0-32,14.4-32,32v448c0,17.6,14.4,32,32,32h320c17.6,0,32-14.4,32-32V128L352,0H128z"/><path style="fill:#B0B7BD;" d="M384,128h96L352,0v96C352,113.6,366.4,128,384,128z"/><polygon style="fill:#CAD1D8;" points="480,224 384,128 480,128 "/><path style="fill:#F15642;" d="M416,416c0,8.8-7.2,16-16,16H48c-8.8,0-16-7.2-16-16V256c0-8.8,7.2-16,16-16h352c8.8,0,16,7.2,16,16 V416z"/><g> <path style="fill:#FFFFFF;" d="M88.368,384c-4.096-2.304-6.656-6.912-4.096-12.288l36.72-71.744c3.456-6.784,12.656-7.04,15.856,0 l36.08,71.744c5.248,9.984-10.24,17.904-14.848,7.936l-5.632-11.248h-47.2l-5.52,11.248C97.712,384,92.992,384.912,88.368,384z M143.392,351.52l-14.464-31.616l-15.744,31.616H143.392z"/> <path style="fill:#FFFFFF;" d="M189.184,384c-4.096-2.304-6.656-6.912-4.096-12.288l36.704-71.744 c3.456-6.784,12.672-7.04,15.872,0l36.064,71.744c5.248,9.984-10.24,17.904-14.832,7.936l-5.648-11.248h-47.2l-5.504,11.248 C198.512,384,193.776,384.912,189.184,384z M244.192,351.52l-14.448-31.616l-15.728,31.616H244.192z"/> <path style="fill:#FFFFFF;" d="M282.416,339.088c0-24.688,15.488-45.904,44.912-45.904c11.136,0,19.952,3.312,29.296,11.376 c3.456,3.184,3.84,8.832,0.384,12.4c-3.456,3.056-8.704,2.688-11.76-0.368c-5.248-5.504-10.624-7.024-17.92-7.024 c-19.696,0-29.168,13.936-29.168,29.536c0,15.872,9.344,30.464,29.168,30.464c7.296,0,14.08-2.96,19.952-8.192 c3.968-3.072,9.472-1.552,11.776,1.536c2.048,2.816,3.056,7.536-1.408,12.016c-8.96,8.336-19.696,9.984-30.336,9.984 C296.368,384.912,282.416,363.792,282.416,339.088z"/> </g><path style="fill:#CAD1D8;" d="M400,432H96v16h304c8.8,0,16-7.2,16-16v-16C416,424.8,408.8,432,400,432z"/></symbol><symbol id="dmg" viewBox="0 0 512 512"><title>dmg</title><path style="fill:#E2E5E7;" d="M128,0c-17.6,0-32,14.4-32,32v448c0,17.6,14.4,32,32,32h320c17.6,0,32-14.4,32-32V128L352,0H128z"/><path style="fill:#B0B7BD;" d="M384,128h96L352,0v96C352,113.6,366.4,128,384,128z"/><polygon style="fill:#CAD1D8;" points="480,224 384,128 480,128 "/><path style="fill:#576D7E;" d="M416,416c0,8.8-7.2,16-16,16H48c-8.8,0-16-7.2-16-16V256c0-8.8,7.2-16,16-16h352c8.8,0,16,7.2,16,16 V416z"/><g> <path style="fill:#FFFFFF;" d="M89.216,384c-4.224,0-8.832-2.32-8.832-7.936v-72.656c0-4.608,4.608-7.936,8.832-7.936h29.296 c58.48,0,57.184,88.528,1.152,88.528H89.216z M97.28,311.072v57.312h21.232c34.544,0,36.08-57.312,0-57.312H97.28z"/> <path style="fill:#FFFFFF;" d="M196.688,327.84v47.328c0,5.648-4.608,8.832-9.2,8.832c-4.096,0-7.68-3.184-7.68-8.832v-72.016 c0-6.656,5.648-8.848,7.68-8.848c3.696,0,5.872,2.192,8.048,4.624l28.16,37.984l29.152-39.408c4.24-5.232,14.592-3.2,14.592,5.648 v72.016c0,5.648-3.6,8.832-7.68,8.832c-4.592,0-8.192-3.184-8.192-8.832V327.84l-21.232,26.864c-4.592,5.648-10.352,5.648-14.576,0 L196.688,327.84z"/> <path style="fill:#FFFFFF;" d="M363.712,374.16c-9.088,7.536-20.224,10.752-31.472,10.752c-26.88,0-45.936-15.36-45.936-45.808 c0-25.84,20.096-45.92,47.072-45.92c10.112,0,21.232,3.456,29.168,11.264c7.808,7.664-3.456,19.056-11.12,12.288 c-4.736-4.624-11.392-8.064-18.048-8.064c-15.472,0-30.432,12.4-30.432,30.432c0,18.944,12.528,30.448,29.296,30.448 c7.792,0,14.448-2.304,19.184-5.76V348.08H332.24c-11.392,0-10.24-15.632,0-15.632h25.584c4.736,0,9.072,3.6,9.072,7.568v27.248 C366.912,369.552,365.888,371.712,363.712,374.16z"/> </g><path style="fill:#CAD1D8;" d="M400,432H96v16h304c8.8,0,16-7.2,16-16v-16C416,424.8,408.8,432,400,432z"/></symbol><symbol id="fla" viewBox="0 0 512 512"><title>fla</title><path style="fill:#E2E5E7;" d="M128,0c-17.6,0-32,14.4-32,32v448c0,17.6,14.4,32,32,32h320c17.6,0,32-14.4,32-32V128L352,0H128z"/><path style="fill:#B0B7BD;" d="M384,128h96L352,0v96C352,113.6,366.4,128,384,128z"/><polygon style="fill:#CAD1D8;" points="480,224 384,128 480,128 "/><path style="fill:#F15642;" d="M416,416c0,8.8-7.2,16-16,16H48c-8.8,0-16-7.2-16-16V256c0-8.8,7.2-16,16-16h352c8.8,0,16,7.2,16,16 V416z"/><g> <path style="fill:#FFFFFF;" d="M124.08,312.112v20.336h32.624c4.608,0,9.2,4.608,9.2,9.072c0,4.224-4.592,7.68-9.2,7.68H124.08 v26.864c0,4.48-3.2,7.92-7.664,7.92c-5.632,0-9.088-3.44-9.088-7.92v-72.672c0-4.592,3.472-7.936,9.088-7.936h44.912 c5.632,0,8.96,3.344,8.96,7.936c0,4.096-3.328,8.704-8.96,8.704H124.08V312.112z"/> <path style="fill:#FFFFFF;" d="M185.824,303.152c0-4.224,3.584-7.808,8.064-7.808c4.096,0,7.552,3.6,7.552,7.808v64.096h34.8 c12.528,0,12.8,16.752,0,16.752h-42.336c-4.48,0-8.064-3.184-8.064-7.792v-73.056H185.824z"/> <path style="fill:#FFFFFF;" d="M262.224,384c-4.096-2.304-6.656-6.912-4.096-12.288l36.704-71.744 c3.456-6.784,12.672-7.04,15.872,0l36.064,71.744c5.248,9.984-10.24,17.904-14.832,7.936l-5.648-11.248h-47.2l-5.488,11.264 C271.552,384,266.816,384.912,262.224,384z M317.216,351.52l-14.448-31.616L287.04,351.52H317.216z"/> </g><path style="fill:#CAD1D8;" d="M400,432H96v16h304c8.8,0,16-7.2,16-16v-16C416,424.8,408.8,432,400,432z"/></symbol><symbol id="midi" viewBox="0 0 512 512"><title>midi</title><path style="fill:#E2E5E7;" d="M128,0c-17.6,0-32,14.4-32,32v448c0,17.6,14.4,32,32,32h320c17.6,0,32-14.4,32-32V128L352,0H128z"/><path style="fill:#B0B7BD;" d="M384,128h96L352,0v96C352,113.6,366.4,128,384,128z"/><polygon style="fill:#CAD1D8;" points="480,224 384,128 480,128 "/><path style="fill:#A066AA;" d="M416,416c0,8.8-7.2,16-16,16H48c-8.8,0-16-7.2-16-16V256c0-8.8,7.2-16,16-16h352c8.8,0,16,7.2,16,16 V416z"/><g> <path style="fill:#FFFFFF;" d="M107.136,327.84v47.328c0,5.648-4.608,8.832-9.216,8.832c-4.096,0-7.664-3.184-7.664-8.832v-72.016 c0-6.656,5.632-8.848,7.664-8.848c3.712,0,5.888,2.192,8.064,4.624l28.144,37.984l29.168-39.408 c4.224-5.232,14.576-3.2,14.576,5.648v72.016c0,5.648-3.568,8.832-7.664,8.832c-4.608,0-8.192-3.184-8.192-8.832V327.84 l-21.232,26.864c-4.608,5.648-10.352,5.648-14.592,0L107.136,327.84z"/> <path style="fill:#FFFFFF;" d="M200.624,303.152c0-10.496,16.896-10.88,16.896,0v73.024c0,10.624-16.896,10.88-16.896,0V303.152z"/> <path style="fill:#FFFFFF;" d="M248.96,384c-4.224,0-8.832-2.32-8.832-7.936v-72.656c0-4.608,4.608-7.936,8.832-7.936h29.296 c58.464,0,57.184,88.528,1.152,88.528H248.96z M257.008,311.072v57.312h21.232c34.544,0,36.08-57.312,0-57.312H257.008z"/> <path style="fill:#FFFFFF;" d="M339.952,303.152c0-10.496,16.896-10.88,16.896,0v73.024c0,10.624-16.896,10.88-16.896,0V303.152z"/> </g><path style="fill:#CAD1D8;" d="M400,432H96v16h304c8.8,0,16-7.2,16-16v-16C416,424.8,408.8,432,400,432z"/></symbol><symbol id="3ds" viewBox="0 0 512 512"><title>3ds</title><path style="fill:#E2E5E7;" d="M128,0c-17.6,0-32,14.4-32,32v448c0,17.6,14.4,32,32,32h320c17.6,0,32-14.4,32-32V128L352,0H128z"/><path style="fill:#B0B7BD;" d="M384,128h96L352,0v96C352,113.6,366.4,128,384,128z"/><polygon style="fill:#CAD1D8;" points="480,224 384,128 480,128 "/><path style="fill:#84BD5A;" d="M416,416c0,8.8-7.2,16-16,16H48c-8.8,0-16-7.2-16-16V256c0-8.8,7.2-16,16-16h352c8.8,0,16,7.2,16,16 V416z"/><g> <path style="fill:#FFFFFF;" d="M133.872,311.472H112c-10.752,0-10.112-16,0-16h39.136c7.808,0,11.392,8.976,5.632,14.72 l-21.232,19.84c15.616-1.152,27.888,10.464,27.888,24.816c0,15.728-11.12,29.152-34.528,29.152c-10.24,0-20.336-4.224-26.24-13.424 c-6.144-9.072,7.024-17.792,13.936-8.832c3.344,4.336,8.72,6.528,14.464,6.528c7.792,0,15.472-3.344,15.472-13.44 c0-13.312-16.24-11.248-25.056-10.368c-10.752,2.064-13.952-9.6-7.68-14.432L133.872,311.472z"/> <path style="fill:#FFFFFF;" d="M190.032,384c-4.224,0-8.832-2.304-8.832-7.92v-72.672c0-4.592,4.608-7.936,8.832-7.936h29.296 c58.464,0,57.184,88.528,1.152,88.528H190.032z M198.096,311.088V368.4h21.232c34.544,0,36.08-57.312,0-57.312H198.096z"/> <path style="fill:#FFFFFF;" d="M277.872,314.672c2.944-24.832,40.416-29.296,58.08-15.728c8.704,7.024-0.512,18.16-8.192,12.528 c-9.472-6-30.96-8.816-33.648,4.464c-3.456,20.992,52.192,8.976,51.296,43.008c-0.896,32.496-47.968,33.248-65.632,18.672 c-4.24-3.456-4.096-9.072-1.792-12.544c3.328-3.312,7.024-4.464,11.392-0.88c10.48,7.152,37.488,12.528,39.392-5.648 C327.12,339.632,273.904,351.008,277.872,314.672z"/> </g><path style="fill:#CAD1D8;" d="M400,432H96v16h304c8.8,0,16-7.2,16-16v-16C416,424.8,408.8,432,400,432z"/></symbol><symbol id="dll" viewBox="0 0 512 512"><title>dll</title><path style="fill:#E2E5E7;" d="M128,0c-17.6,0-32,14.4-32,32v448c0,17.6,14.4,32,32,32h320c17.6,0,32-14.4,32-32V128L352,0H128z"/><path style="fill:#B0B7BD;" d="M384,128h96L352,0v96C352,113.6,366.4,128,384,128z"/><polygon style="fill:#CAD1D8;" points="480,224 384,128 480,128 "/><path style="fill:#576D7E;" d="M416,416c0,8.8-7.2,16-16,16H48c-8.8,0-16-7.2-16-16V256c0-8.8,7.2-16,16-16h352c8.8,0,16,7.2,16,16 V416z"/><g> <path style="fill:#FFFFFF;" d="M118.08,384c-4.224,0-8.832-2.32-8.832-7.936v-72.656c0-4.608,4.608-7.936,8.832-7.936h29.296 c58.464,0,57.184,88.528,1.152,88.528H118.08z M126.144,311.072v57.312h21.232c34.544,0,36.08-57.312,0-57.312H126.144z"/> <path style="fill:#FFFFFF;" d="M208.608,303.152c0-4.224,3.584-7.808,8.064-7.808c4.096,0,7.552,3.6,7.552,7.808v64.096h34.8 c12.528,0,12.8,16.752,0,16.752h-42.336c-4.48,0-8.064-3.184-8.064-7.808v-73.04H208.608z"/> <path style="fill:#FFFFFF;" d="M283.552,303.152c0-4.224,3.584-7.808,8.064-7.808c4.096,0,7.552,3.6,7.552,7.808v64.096h34.8 c12.528,0,12.8,16.752,0,16.752h-42.336c-4.48,0-8.064-3.184-8.064-7.808v-73.04H283.552z"/> </g><path style="fill:#CAD1D8;" d="M400,432H96v16h304c8.8,0,16-7.2,16-16v-16C416,424.8,408.8,432,400,432z"/></symbol><symbol id="dat" viewBox="0 0 512 512"><title>dat</title><path style="fill:#E2E5E7;" d="M128,0c-17.6,0-32,14.4-32,32v448c0,17.6,14.4,32,32,32h320c17.6,0,32-14.4,32-32V128L352,0H128z"/><path style="fill:#B0B7BD;" d="M384,128h96L352,0v96C352,113.6,366.4,128,384,128z"/><polygon style="fill:#CAD1D8;" points="480,224 384,128 480,128 "/><path style="fill:#84BD5A;" d="M416,416c0,8.8-7.2,16-16,16H48c-8.8,0-16-7.2-16-16V256c0-8.8,7.2-16,16-16h352c8.8,0,16,7.2,16,16 V416z"/><g> <path style="fill:#FFFFFF;" d="M110.272,384c-4.224,0-8.832-2.304-8.832-7.92v-72.672c0-4.608,4.608-7.936,8.832-7.936h29.296 c58.464,0,57.184,88.528,1.152,88.528H110.272z M118.336,311.072v57.312h21.232c34.544,0,36.08-57.312,0-57.312H118.336z"/> <path style="fill:#FFFFFF;" d="M196.288,384c-4.096-2.304-6.64-6.912-4.096-12.288l36.72-71.76c3.456-6.784,12.672-7.024,15.872,0 l36.064,71.76c5.248,9.984-10.24,17.904-14.832,7.936l-5.648-11.264h-47.2l-5.504,11.264C205.632,384,200.896,384.912,196.288,384z M251.296,351.52l-14.448-31.616L221.12,351.52H251.296z"/> <path style="fill:#FFFFFF;" d="M305.584,311.472H283.2c-11.136,0-11.136-16.368,0-16.368h60.496c11.392,0,11.392,16.368,0,16.368 h-21.232v64.608c0,11.12-16.896,11.376-16.896,0v-64.608H305.584z"/> </g><path style="fill:#CAD1D8;" d="M400,432H96v16h304c8.8,0,16-7.2,16-16v-16C416,424.8,408.8,432,400,432z"/></symbol><symbol id="ps" viewBox="0 0 512 512"><title>ps</title><path style="fill:#E2E5E7;" d="M128,0c-17.6,0-32,14.4-32,32v448c0,17.6,14.4,32,32,32h320c17.6,0,32-14.4,32-32V128L352,0H128z"/><path style="fill:#B0B7BD;" d="M384,128h96L352,0v96C352,113.6,366.4,128,384,128z"/><polygon style="fill:#CAD1D8;" points="480,224 384,128 480,128 "/><path style="fill:#F7B84E;" d="M416,416c0,8.8-7.2,16-16,16H48c-8.8,0-16-7.2-16-16V256c0-8.8,7.2-16,16-16h352c8.8,0,16,7.2,16,16 V416z"/><g> <path style="fill:#FFFFFF;" d="M149.696,303.152c0-4.224,3.328-8.848,8.704-8.848h29.552c16.64,0,31.616,11.136,31.616,32.496 c0,20.224-14.976,31.472-31.616,31.472h-21.36v16.896c0,5.648-3.584,8.832-8.192,8.832c-4.224,0-8.704-3.184-8.704-8.832V303.152z M166.592,310.432v31.856h21.36c8.576,0,15.36-7.552,15.36-15.488c0-8.96-6.784-16.368-15.36-16.368L166.592,310.432 L166.592,310.432z"/> <path style="fill:#FFFFFF;" d="M234.032,314.656c2.944-24.816,40.416-29.28,58.08-15.712c8.704,7.024-0.512,18.16-8.192,12.528 c-9.472-6.016-30.96-8.832-33.648,4.464c-3.456,20.992,52.192,8.976,51.296,42.992c-0.896,32.496-47.968,33.264-65.632,18.672 c-4.24-3.44-4.096-9.056-1.792-12.528c3.328-3.312,7.024-4.464,11.392-0.896c10.48,7.168,37.488,12.544,39.392-5.648 C283.28,339.616,230.064,351.008,234.032,314.656z"/> </g><path style="fill:#CAD1D8;" d="M400,432H96v16h304c8.8,0,16-7.2,16-16v-16C416,424.8,408.8,432,400,432z"/></symbol><symbol id="indd" viewBox="0 0 512 512"><title>indd</title><path style="fill:#E2E5E7;" d="M128,0c-17.6,0-32,14.4-32,32v448c0,17.616,14.4,32,32,32h320c17.6,0,32-14.384,32-32V128L352,0H128z "/><path style="fill:#B0B7BD;" d="M384,128h96L352,0v96C352,113.6,366.4,128,384,128z"/><polygon style="fill:#CAD1D8;" points="480,224 384,128 480,128 "/><path style="fill:#A066AA;" d="M416,416c0,8.8-7.2,16-16,16H48c-8.8,0-16-7.2-16-16V256c0-8.8,7.2-16,16-16h352c8.8,0,16,7.2,16,16 V416z"/><g> <path style="fill:#FFFFFF;" d="M66.4,303.152c0-10.496,16.88-10.88,16.88,0v73.04c0,10.608-16.88,10.88-16.88,0V303.152z"/> <path style="fill:#FFFFFF;" d="M105.968,304.432c0-4.608,1.024-9.088,7.664-9.088c4.608,0,5.632,1.152,9.088,4.48l42.336,52.96 v-49.632c0-4.224,3.696-8.832,8.064-8.832c4.592,0,9.072,4.608,9.072,8.832v72.016c0,5.648-3.456,7.808-6.784,8.832 c-4.464,0-6.656-1.008-10.352-4.464l-42.336-53.744v49.376c0,5.648-3.456,8.832-8.064,8.832s-8.688-3.184-8.688-8.832V304.432z"/> <path style="fill:#FFFFFF;" d="M213.248,384c-4.224,0-8.832-2.304-8.832-7.92v-72.672c0-4.608,4.608-7.936,8.832-7.936h29.296 c58.464,0,57.184,88.528,1.152,88.528H213.248z M221.312,311.072v57.312h21.232c34.544,0,36.08-57.312,0-57.312H221.312z"/> <path style="fill:#FFFFFF;" d="M312.592,384c-4.224,0-8.832-2.304-8.832-7.92v-72.672c0-4.608,4.608-7.936,8.832-7.936h29.296 c58.464,0,57.184,88.528,1.152,88.528H312.592z M320.656,311.072v57.312h21.232c34.544,0,36.08-57.312,0-57.312H320.656z"/> </g><path style="fill:#CAD1D8;" d="M400,432H96v16h304c8.8,0,16-7.2,16-16v-16C416,424.8,408.8,432,400,432z"/></symbol><symbol id="flv" viewBox="0 0 512 512"><title>flv</title><path style="fill:#E2E5E7;" d="M128,0c-17.6,0-32,14.4-32,32v448c0,17.6,14.4,32,32,32h320c17.6,0,32-14.4,32-32V128L352,0H128z"/><path style="fill:#B0B7BD;" d="M384,128h96L352,0v96C352,113.6,366.4,128,384,128z"/><polygon style="fill:#CAD1D8;" points="480,224 384,128 480,128 "/><path style="fill:#F7B84E;" d="M416,416c0,8.8-7.2,16-16,16H48c-8.8,0-16-7.2-16-16V256c0-8.8,7.2-16,16-16h352c8.8,0,16,7.2,16,16 V416z"/><g> <path style="fill:#FFFFFF;" d="M133.312,312.096v20.336h32.624c4.608,0,9.216,4.608,9.216,9.088c0,4.224-4.608,7.664-9.216,7.664 h-32.624v26.864c0,4.48-3.184,7.936-7.664,7.936c-5.632,0-9.072-3.456-9.072-7.936v-72.656c0-4.608,3.456-7.936,9.072-7.936h44.912 c5.632,0,8.96,3.328,8.96,7.936c0,4.096-3.328,8.688-8.96,8.688h-37.248V312.096z"/> <path style="fill:#FFFFFF;" d="M195.072,303.152c0-4.224,3.584-7.808,8.064-7.808c4.096,0,7.552,3.6,7.552,7.808v64.096h34.8 c12.528,0,12.8,16.752,0,16.752h-42.336c-4.48,0-8.064-3.184-8.064-7.808v-73.04H195.072z"/> <path style="fill:#FFFFFF;" d="M286.88,378.256l-33.776-70.752c-4.992-10.112,10.112-18.416,15.728-7.808l11.392,25.712 l14.704,33.776l14.448-33.776l11.392-25.712c5.12-9.712,19.952-3.584,15.616,7.04l-32.624,71.52 C300.816,386.32,291.728,388.224,286.88,378.256z"/> </g><path style="fill:#CAD1D8;" d="M400,432H96v16h304c8.8,0,16-7.2,16-16v-16C416,424.8,408.8,432,400,432z"/></symbol><symbol id="cad" viewBox="0 0 512 512"><title>cad</title><path style="fill:#E2E5E7;" d="M128,0c-17.6,0-32,14.4-32,32v448c0,17.6,14.4,32,32,32h320c17.6,0,32-14.4,32-32V128L352,0H128z"/><path style="fill:#B0B7BD;" d="M384,128h96L352,0v96C352,113.6,366.4,128,384,128z"/><polygon style="fill:#CAD1D8;" points="480,224 384,128 480,128 "/><path style="fill:#50BEE8;" d="M416,416c0,8.8-7.2,16-16,16H48c-8.8,0-16-7.2-16-16V256c0-8.8,7.2-16,16-16h352c8.8,0,16,7.2,16,16 V416z"/><g> <path style="fill:#FFFFFF;" d="M85.648,339.088c0-24.688,15.488-45.92,44.912-45.92c11.12,0,19.952,3.328,29.296,11.392 c3.456,3.184,3.824,8.832,0.368,12.4c-3.456,3.056-8.688,2.688-11.76-0.384c-5.248-5.504-10.624-7.024-17.904-7.024 c-19.696,0-29.168,13.952-29.168,29.552c0,15.872,9.344,30.448,29.168,30.448c7.28,0,14.064-2.944,19.952-8.192 c3.968-3.056,9.472-1.536,11.76,1.536c2.048,2.816,3.072,7.552-1.408,12.032c-8.96,8.32-19.696,9.984-30.32,9.984 C99.6,384.912,85.648,363.792,85.648,339.088z"/> <path style="fill:#FFFFFF;" d="M181.056,384c-4.096-2.304-6.656-6.912-4.096-12.288l36.704-71.76 c3.456-6.784,12.672-7.024,15.872,0l36.064,71.76c5.248,9.984-10.24,17.904-14.832,7.936l-5.648-11.264h-47.2l-5.504,11.264 C190.384,384,185.664,384.912,181.056,384z M236.064,351.52l-14.448-31.616l-15.728,31.616H236.064z"/> <path style="fill:#FFFFFF;" d="M289.264,384c-4.224,0-8.832-2.304-8.832-7.92v-72.672c0-4.608,4.608-7.936,8.832-7.936h29.296 c58.464,0,57.184,88.528,1.152,88.528H289.264z M297.328,311.072v57.312h21.232c34.544,0,36.08-57.312,0-57.312H297.328z"/> </g><path style="fill:#CAD1D8;" d="M400,432H96v16h304c8.8,0,16-7.2,16-16v-16C416,424.8,408.8,432,400,432z"/></symbol><symbol id="eps" viewBox="0 0 512 512"><title>eps</title><path style="fill:#E2E5E7;" d="M128,0c-17.6,0-32,14.4-32,32v448c0,17.6,14.4,32,32,32h320c17.6,0,32-14.4,32-32V128L352,0H128z"/><path style="fill:#B0B7BD;" d="M384,128h96L352,0v96C352,113.6,366.4,128,384,128z"/><polygon style="fill:#CAD1D8;" points="480,224 384,128 480,128 "/><path style="fill:#F7B84E;" d="M416,416c0,8.8-7.2,16-16,16H48c-8.8,0-16-7.2-16-16V256c0-8.8,7.2-16,16-16h352c8.8,0,16,7.2,16,16 V416z"/><g> <path style="fill:#FFFFFF;" d="M116.608,384c-4.48,0-7.936-3.456-7.936-7.936v-72.656c0-4.608,3.456-7.936,7.936-7.936h45.92 c11.776,0,11.52,16.624,0,16.624h-36.832v19.2h32.24c11.376,0,11.376,16.768,0,16.768h-32.24v19.184h39.024 c11.648,0,12.528,16.752,0,16.752H116.608z"/> <path style="fill:#FFFFFF;" d="M190.48,303.152c0-4.224,3.328-8.848,8.704-8.848h29.552c16.64,0,31.616,11.136,31.616,32.496 c0,20.224-14.976,31.472-31.616,31.472h-21.36v16.896c0,5.648-3.584,8.832-8.192,8.832c-4.224,0-8.704-3.184-8.704-8.832V303.152z M207.376,310.432v31.856h21.36c8.576,0,15.36-7.552,15.36-15.488c0-8.96-6.784-16.368-15.36-16.368L207.376,310.432 L207.376,310.432z"/> <path style="fill:#FFFFFF;" d="M274.8,314.656c2.944-24.816,40.416-29.28,58.08-15.712c8.704,7.024-0.512,18.16-8.192,12.528 c-9.472-6.016-30.96-8.832-33.648,4.464c-3.456,20.992,52.192,8.976,51.296,42.992c-0.896,32.496-47.968,33.264-65.632,18.672 c-4.224-3.44-4.096-9.056-1.792-12.528c3.328-3.312,7.024-4.464,11.392-0.896c10.48,7.168,37.488,12.544,39.408-5.648 C324.048,339.616,270.832,351.008,274.8,314.656z"/> </g><path style="fill:#CAD1D8;" d="M400,432H96v16h304c8.8,0,16-7.2,16-16v-16C416,424.8,408.8,432,400,432z"/></symbol><symbol id="mov" viewBox="0 0 512 512"><title>mov</title><path style="fill:#E2E5E7;" d="M128,0c-17.6,0-32,14.4-32,32v448c0,17.6,14.4,32,32,32h320c17.6,0,32-14.4,32-32V128L352,0H128z"/><path style="fill:#B0B7BD;" d="M384,128h96L352,0v96C352,113.6,366.4,128,384,128z"/><polygon style="fill:#CAD1D8;" points="480,224 384,128 480,128 "/><path style="fill:#50BEE8;" d="M416,416c0,8.8-7.2,16-16,16H48c-8.8,0-16-7.2-16-16V256c0-8.8,7.2-16,16-16h352c8.8,0,16,7.2,16,16 V416z"/><g> <path style="fill:#FFFFFF;" d="M96.928,327.84v47.328c0,5.648-4.608,8.832-9.216,8.832c-4.096,0-7.68-3.184-7.68-8.832v-72.016 c0-6.656,5.632-8.848,7.68-8.848c3.696,0,5.872,2.192,8.064,4.624l28.128,37.984l29.168-39.408c4.24-5.232,14.592-3.2,14.592,5.648 v72.016c0,5.648-3.568,8.832-7.664,8.832c-4.608,0-8.192-3.184-8.192-8.832V327.84l-21.248,26.864 c-4.592,5.648-10.352,5.648-14.576,0L96.928,327.84z"/> <path style="fill:#FFFFFF;" d="M234.096,385.28c-23.664,1.024-48.24-14.72-48.24-46.064c0-31.472,24.56-46.944,48.24-46.944 c22.384,1.136,45.792,16.624,45.792,46.944C279.888,369.552,256.48,385.28,234.096,385.28z M232.688,308.912 c-14.336,0-29.936,10.112-29.936,30.32c0,20.096,15.616,30.336,29.936,30.336c14.72,0,30.448-10.24,30.448-30.336 C263.136,319.008,247.408,308.912,232.688,308.912z"/> <path style="fill:#FFFFFF;" d="M323.664,378.256l-33.776-70.752c-4.992-10.112,10.112-18.416,15.728-7.808l11.392,25.712 l14.704,33.776l14.448-33.776l11.392-25.712c5.12-9.712,19.952-3.584,15.616,7.04l-32.624,71.52 C337.6,386.32,328.512,388.224,323.664,378.256z"/> </g><path style="fill:#CAD1D8;" d="M400,432H96v16h304c8.8,0,16-7.2,16-16v-16C416,424.8,408.8,432,400,432z"/></symbol><symbol id="tif" viewBox="0 0 512 512"><title>tif</title><path style="fill:#E2E5E7;" d="M128,0c-17.6,0-32,14.4-32,32v448c0,17.6,14.4,32,32,32h320c17.6,0,32-14.4,32-32V128L352,0H128z"/><path style="fill:#B0B7BD;" d="M384,128h96L352,0v96C352,113.6,366.4,128,384,128z"/><polygon style="fill:#CAD1D8;" points="480,224 384,128 480,128 "/><path style="fill:#A066AA;" d="M416,416c0,8.8-7.2,16-16,16H48c-8.8,0-16-7.2-16-16V256c0-8.8,7.2-16,16-16h352c8.8,0,16,7.2,16,16 V416z"/><g> <path style="fill:#FFFFFF;" d="M155.824,311.472H133.44c-11.12,0-11.12-16.368,0-16.368h60.512c11.376,0,11.376,16.368,0,16.368 H172.72v64.592c0,11.12-16.896,11.392-16.896,0C155.824,376.064,155.824,311.472,155.824,311.472z"/> <path style="fill:#FFFFFF;" d="M217.536,303.152c0-10.496,16.896-10.88,16.896,0v73.024c0,10.624-16.896,10.88-16.896,0V303.152z"/> <path style="fill:#FFFFFF;" d="M273.712,312.096v20.336h32.608c4.608,0,9.216,4.608,9.216,9.088c0,4.224-4.608,7.664-9.216,7.664 h-32.608v26.864c0,4.48-3.2,7.936-7.68,7.936c-5.632,0-9.072-3.456-9.072-7.936v-72.656c0-4.608,3.456-7.936,9.072-7.936h44.912 c5.632,0,8.96,3.328,8.96,7.936c0,4.096-3.328,8.688-8.96,8.688h-37.232V312.096z"/> </g><path style="fill:#CAD1D8;" d="M400,432H96v16h304c8.8,0,16-7.2,16-16v-16C416,424.8,408.8,432,400,432z"/></symbol><symbol id="bmp" viewBox="0 0 512 512"><title>bmp</title><path style="fill:#E2E5E7;" d="M128,0c-17.6,0-32,14.4-32,32v448c0,17.6,14.4,32,32,32h320c17.6,0,32-14.4,32-32V128L352,0H128z"/><path style="fill:#B0B7BD;" d="M384,128h96L352,0v96C352,113.6,366.4,128,384,128z"/><polygon style="fill:#CAD1D8;" points="480,224 384,128 480,128 "/><path style="fill:#84BD5A;" d="M416,416c0,8.8-7.2,16-16,16H48c-8.8,0-16-7.2-16-16V256c0-8.8,7.2-16,16-16h352c8.8,0,16,7.2,16,16 V416z"/><g> <path style="fill:#FFFFFF;" d="M99.968,384c-4.608,0-7.808-3.456-7.808-7.936v-72.656c0-4.608,3.2-7.936,7.808-7.936h35.952 c16.768,0,25.84,11.392,25.84,24.432c0,5.744-1.664,11.392-7.024,16.128c10.096,3.968,14.576,11.76,14.576,21.232 c-0.016,14.704-10,26.736-29.184,26.736H99.968z M135.904,311.072h-26.992v19.056h26.992c5.504,0,8.96-3.456,8.96-10.24 C144.864,315.68,141.408,311.072,135.904,311.072z M108.912,368.384h31.216c14.848,0,14.848-22.64,0-22.64 c-9.712,0-21.104,0-31.216,0V368.384z"/> <path style="fill:#FFFFFF;" d="M201.456,327.84v47.328c0,5.648-4.608,8.832-9.2,8.832c-4.096,0-7.68-3.184-7.68-8.832v-72.016 c0-6.656,5.648-8.848,7.68-8.848c3.696,0,5.872,2.192,8.048,4.624l28.16,37.984l29.152-39.408c4.24-5.232,14.592-3.2,14.592,5.648 v72.016c0,5.648-3.584,8.832-7.664,8.832c-4.608,0-8.192-3.184-8.192-8.832V327.84l-21.248,26.864 c-4.592,5.648-10.352,5.648-14.576,0L201.456,327.84z"/> <path style="fill:#FFFFFF;" d="M290.176,303.152c0-4.224,3.328-8.848,8.704-8.848h29.552c16.64,0,31.616,11.136,31.616,32.496 c0,20.224-14.976,31.472-31.616,31.472h-21.36v16.896c0,5.648-3.584,8.832-8.192,8.832c-4.224,0-8.704-3.184-8.704-8.832 L290.176,303.152L290.176,303.152z M307.056,310.432v31.856h21.36c8.576,0,15.36-7.552,15.36-15.488 c0-8.96-6.784-16.368-15.36-16.368L307.056,310.432L307.056,310.432z"/> </g><path style="fill:#CAD1D8;" d="M400,432H96v16h304c8.8,0,16-7.2,16-16v-16C416,424.8,408.8,432,400,432z"/></symbol><symbol id="mpg" viewBox="0 0 512 512"><title>mpg</title><path style="fill:#E2E5E7;" d="M128,0c-17.6,0-32,14.4-32,32v448c0,17.6,14.4,32,32,32h320c17.6,0,32-14.4,32-32V128L352,0H128z"/><path style="fill:#B0B7BD;" d="M384,128h96L352,0v96C352,113.6,366.4,128,384,128z"/><polygon style="fill:#CAD1D8;" points="480,224 384,128 480,128 "/><path style="fill:#F7B84E;" d="M416,416c0,8.8-7.2,16-16,16H48c-8.8,0-16-7.2-16-16V256c0-8.8,7.2-16,16-16h352c8.8,0,16,7.2,16,16 V416z"/><g> <path style="fill:#FFFFFF;" d="M103.408,327.84v47.328c0,5.648-4.592,8.832-9.216,8.832c-4.096,0-7.664-3.184-7.664-8.832v-72.016 c0-6.656,5.632-8.848,7.664-8.848c3.712,0,5.888,2.192,8.064,4.624l28.16,37.984l29.152-39.408c4.24-5.232,14.592-3.2,14.592,5.648 v72.016c0,5.648-3.6,8.832-7.696,8.832c-4.592,0-8.192-3.184-8.192-8.832V327.84l-21.232,26.864 c-4.592,5.648-10.352,5.648-14.576,0L103.408,327.84z"/> <path style="fill:#FFFFFF;" d="M196.496,303.152c0-4.224,3.328-8.848,8.704-8.848h29.552c16.64,0,31.616,11.136,31.616,32.496 c0,20.224-14.976,31.472-31.616,31.472h-21.36v16.896c0,5.648-3.584,8.832-8.192,8.832c-4.224,0-8.704-3.184-8.704-8.832V303.152z M213.392,310.432v31.856h21.36c8.576,0,15.36-7.552,15.36-15.488c0-8.96-6.784-16.368-15.36-16.368L213.392,310.432 L213.392,310.432z"/> <path style="fill:#FFFFFF;" d="M357.728,374.16c-9.088,7.536-20.224,10.752-31.472,10.752c-26.88,0-45.936-15.36-45.936-45.808 c0-25.84,20.096-45.92,47.072-45.92c10.112,0,21.232,3.456,29.168,11.264c7.792,7.664-3.456,19.056-11.12,12.288 c-4.736-4.624-11.392-8.064-18.048-8.064c-15.472,0-30.432,12.4-30.432,30.432c0,18.944,12.528,30.448,29.296,30.448 c7.792,0,14.448-2.304,19.184-5.76V348.08h-19.184c-11.392,0-10.24-15.632,0-15.632h25.584c4.736,0,9.072,3.6,9.072,7.568v27.248 C360.928,369.552,359.904,371.712,357.728,374.16z"/> </g><path style="fill:#CAD1D8;" d="M400,432H96v16h304c8.8,0,16-7.2,16-16v-16C416,424.8,408.8,432,400,432z"/></symbol><symbol id="wmv" viewBox="0 0 512 512"><title>wmv</title><path style="fill:#E2E5E7;" d="M128,0c-17.6,0-32,14.4-32,32v448c0,17.6,14.4,32,32,32h320c17.6,0,32-14.4,32-32V128L352,0H128z"/><path style="fill:#B0B7BD;" d="M384,128h96L352,0v96C352,113.6,366.4,128,384,128z"/><polygon style="fill:#CAD1D8;" points="480,224 384,128 480,128 "/><path style="fill:#84BD5A;" d="M416,416c0,8.8-7.2,16-16,16H48c-8.8,0-16-7.2-16-16V256c0-8.8,7.2-16,16-16h352c8.8,0,16,7.2,16,16 V416z"/><g> <path style="fill:#FFFFFF;" d="M153.216,353.44l19.056-52.72c3.824-10.336,19.312-5.504,15.472,5.632l-25.328,68.72 c-2.304,7.28-4.464,9.472-8.832,9.472c-4.592,0-6.016-2.832-8.56-7.44l-22.256-50.544l-21.232,49.776 c-2.32,5.36-4.464,8.432-9.088,8.432c-4.464,0-6.784-3.072-8.816-8.704l-24.816-69.728c-3.84-11.504,12.4-15.712,15.712-5.632 l18.944,52.72l22.656-52.72c3.056-7.792,11.12-8.192,14.432-0.368L153.216,353.44z"/> <path style="fill:#FFFFFF;" d="M219.744,327.84v47.344c0,5.632-4.608,8.816-9.2,8.816c-4.096,0-7.68-3.184-7.68-8.816v-72.032 c0-6.656,5.648-8.832,7.68-8.832c3.696,0,5.872,2.176,8.048,4.608l28.16,38l29.152-39.408c4.24-5.248,14.592-3.2,14.592,5.632 v72.032c0,5.632-3.6,8.816-7.68,8.816c-4.592,0-8.192-3.184-8.192-8.816V327.84l-21.232,26.88c-4.592,5.632-10.352,5.632-14.576,0 L219.744,327.84z"/> <path style="fill:#FFFFFF;" d="M339.776,378.256L306,307.504c-4.992-10.096,10.112-18.4,15.728-7.792l11.392,25.696l14.704,33.776 l14.448-33.776l11.392-25.696c5.12-9.728,19.952-3.584,15.616,7.04l-32.624,71.504C353.712,386.32,344.64,388.224,339.776,378.256z "/> </g><path style="fill:#CAD1D8;" d="M400,432H96v16h304c8.8,0,16-7.2,16-16v-16C416,424.8,408.8,432,400,432z"/></symbol><symbol id="cdr" viewBox="0 0 512 512"><title>cdr</title><path style="fill:#E2E5E7;" d="M128,0c-17.6,0-32,14.4-32,32v448c0,17.6,14.4,32,32,32h320c17.6,0,32-14.4,32-32V128L352,0H128z"/><path style="fill:#B0B7BD;" d="M384,128h96L352,0v96C352,113.6,366.4,128,384,128z"/><polygon style="fill:#CAD1D8;" points="480,224 384,128 480,128 "/><path style="fill:#84BD5A;" d="M416,416c0,8.8-7.2,16-16,16H48c-8.8,0-16-7.2-16-16V256c0-8.8,7.2-16,16-16h352c8.8,0,16,7.2,16,16 V416z"/><g> <path style="fill:#FFFFFF;" d="M90.592,339.088c0-24.688,15.472-45.904,44.912-45.904c11.12,0,19.952,3.312,29.296,11.376 c3.456,3.184,3.824,8.832,0.368,12.4c-3.456,3.056-8.704,2.688-11.76-0.368c-5.248-5.504-10.624-7.024-17.904-7.024 c-19.696,0-29.168,13.936-29.168,29.536c0,15.872,9.328,30.464,29.168,30.464c7.28,0,14.064-2.96,19.952-8.192 c3.968-3.072,9.472-1.552,11.76,1.536c2.048,2.816,3.072,7.536-1.408,12.016c-8.96,8.336-19.696,9.984-30.32,9.984 C104.544,384.912,90.592,363.792,90.592,339.088z"/> <path style="fill:#FFFFFF;" d="M195.056,384c-4.224,0-8.832-2.304-8.832-7.92v-72.672c0-4.592,4.608-7.936,8.832-7.936h29.296 c58.464,0,57.184,88.528,1.152,88.528H195.056z M203.12,311.088V368.4h21.232c34.544,0,36.08-57.312,0-57.312H203.12z"/> <path style="fill:#FFFFFF;" d="M302.592,375.68c0,11.12-17.008,11.52-17.008,0.256V303.28c0-4.464,3.456-7.808,7.664-7.808h34.032 c32.496,0,39.152,43.504,12.032,54.368l17.008,20.736c6.656,9.856-6.656,19.312-14.336,9.6l-19.312-27.648h-20.096v23.152H302.592z M302.592,337.824h24.688c16.64,0,17.664-26.864,0-26.864h-24.688V337.824z"/> </g><path style="fill:#CAD1D8;" d="M400,432H96v16h304c8.8,0,16-7.2,16-16v-16C416,424.8,408.8,432,400,432z"/></symbol><symbol id="iso" viewBox="0 0 512 512"><title>iso</title><path style="fill:#E2E5E7;" d="M128,0c-17.6,0-32,14.4-32,32v448c0,17.6,14.4,32,32,32h320c17.6,0,32-14.4,32-32V128L352,0H128z"/><path style="fill:#B0B7BD;" d="M384,128h96L352,0v96C352,113.6,366.4,128,384,128z"/><polygon style="fill:#CAD1D8;" points="480,224 384,128 480,128 "/><path style="fill:#50BEE8;" d="M416,416c0,8.8-7.2,16-16,16H48c-8.8,0-16-7.2-16-16V256c0-8.8,7.2-16,16-16h352c8.8,0,16,7.2,16,16 V416z"/><g> <path style="fill:#FFFFFF;" d="M119.52,303.152c0-10.496,16.896-10.88,16.896,0v73.024c0,10.624-16.896,10.88-16.896,0 C119.52,376.176,119.52,303.152,119.52,303.152z"/> <path style="fill:#FFFFFF;" d="M156.624,314.656c2.944-24.816,40.416-29.28,58.08-15.712c8.704,7.024-0.512,18.16-8.192,12.528 c-9.472-6.016-30.96-8.832-33.648,4.464c-3.456,20.992,52.192,8.976,51.296,42.992c-0.896,32.496-47.968,33.264-65.632,18.672 c-4.24-3.44-4.096-9.056-1.792-12.528c3.328-3.312,7.024-4.464,11.392-0.896c10.48,7.168,37.488,12.544,39.392-5.648 C205.872,339.616,152.656,351.008,156.624,314.656z"/> <path style="fill:#FFFFFF;" d="M285.824,385.28c-23.664,1.024-48.24-14.72-48.24-46.064c0-31.472,24.56-46.944,48.24-46.944 c22.384,1.136,45.792,16.624,45.792,46.944C331.632,369.552,308.224,385.28,285.824,385.28z M284.416,308.912 c-14.336,0-29.936,10.112-29.936,30.32c0,20.096,15.616,30.336,29.936,30.336c14.72,0,30.448-10.24,30.448-30.336 C314.88,319.008,299.136,308.912,284.416,308.912z"/> </g><path style="fill:#CAD1D8;" d="M400,432H96v16h304c8.8,0,16-7.2,16-16v-16C416,424.8,408.8,432,400,432z"/></symbol><symbol id="sql" viewBox="0 0 512 512"><title>sql</title><path style="fill:#E2E5E7;" d="M128,0c-17.6,0-32,14.4-32,32v448c0,17.6,14.4,32,32,32h320c17.6,0,32-14.4,32-32V128L352,0H128z"/><path style="fill:#B0B7BD;" d="M384,128h96L352,0v96C352,113.6,366.4,128,384,128z"/><polygon style="fill:#CAD1D8;" points="480,224 384,128 480,128 "/><path style="fill:#F15642;" d="M416,416c0,8.8-7.2,16-16,16H48c-8.8,0-16-7.2-16-16V256c0-8.8,7.2-16,16-16h352c8.8,0,16,7.2,16,16 V416z"/><g> <path style="fill:#FFFFFF;" d="M98.128,314.672c2.944-24.832,40.416-29.296,58.064-15.728c8.704,7.024-0.496,18.16-8.192,12.528 c-9.456-6-30.96-8.816-33.648,4.464c-3.456,20.992,52.208,8.976,51.296,43.008c-0.896,32.496-47.968,33.248-65.632,18.672 c-4.224-3.456-4.096-9.072-1.776-12.544c3.312-3.312,7.024-4.464,11.376-0.88c10.496,7.152,37.488,12.528,39.408-5.648 C147.376,339.632,94.16,351.008,98.128,314.672z"/> <path style="fill:#FFFFFF;" d="M265.488,369.424l2.048,2.416c8.432,7.68-2.56,20.224-11.136,12.16l-4.336-3.44 c-6.656,4.592-14.448,6.784-24.816,6.784c-22.512,0-48.24-15.504-48.24-46.976s25.584-47.456,48.24-47.456 c23.776,0,47.072,15.984,47.072,47.456C274.32,352.528,271.232,361.504,265.488,369.424z M257.792,340.368 c0-20.336-15.984-30.688-30.56-30.688c-15.728,0-31.216,10.336-31.216,30.688c0,15.504,13.168,30.208,31.216,30.208 c4.592,0,9.072-1.152,13.552-2.304l-14.576-13.44c-6.784-8.192,3.968-19.84,12.528-12.288l14.464,14.448 C256.384,352.528,257.792,347.024,257.792,340.368z"/> <path style="fill:#FFFFFF;" d="M293.168,303.152c0-4.224,3.584-7.808,8.064-7.808c4.096,0,7.552,3.6,7.552,7.808v64.096h34.8 c12.528,0,12.8,16.752,0,16.752h-42.336c-4.48,0-8.064-3.184-8.064-7.792v-73.056H293.168z"/> </g><path style="fill:#CAD1D8;" d="M400,432H96v16h304c8.8,0,16-7.2,16-16v-16C416,424.8,408.8,432,400,432z"/></symbol><symbol id="gif" viewBox="0 0 512 512"><title>gif</title><path style="fill:#E2E5E7;" d="M128,0c-17.6,0-32,14.4-32,32v448c0,17.6,14.4,32,32,32h320c17.6,0,32-14.4,32-32V128L352,0H128z"/><path style="fill:#B0B7BD;" d="M384,128h96L352,0v96C352,113.6,366.4,128,384,128z"/><polygon style="fill:#CAD1D8;" points="480,224 384,128 480,128 "/><path style="fill:#A066AA;" d="M416,416c0,8.8-7.2,16-16,16H48c-8.8,0-16-7.2-16-16V256c0-8.8,7.2-16,16-16h352c8.8,0,16,7.2,16,16 V416z"/><g> <path style="fill:#FFFFFF;" d="M199.84,374.16c-9.088,7.536-20.224,10.752-31.472,10.752c-26.88,0-45.936-15.36-45.936-45.808 c0-25.84,20.096-45.92,47.072-45.92c10.112,0,21.232,3.456,29.168,11.264c7.808,7.664-3.456,19.056-11.12,12.288 c-4.736-4.624-11.392-8.064-18.048-8.064c-15.472,0-30.432,12.4-30.432,30.432c0,18.944,12.528,30.448,29.296,30.448 c7.792,0,14.448-2.304,19.184-5.76V348.08h-19.184c-11.392,0-10.24-15.632,0-15.632h25.584c4.736,0,9.072,3.6,9.072,7.568v27.248 C203.024,369.552,202.016,371.712,199.84,374.16z"/> <path style="fill:#FFFFFF;" d="M224.944,303.152c0-10.496,16.896-10.88,16.896,0v73.024c0,10.624-16.896,10.88-16.896,0V303.152z"/> <path style="fill:#FFFFFF;" d="M281.12,312.096v20.336h32.608c4.608,0,9.216,4.608,9.216,9.088c0,4.224-4.608,7.664-9.216,7.664 H281.12v26.864c0,4.48-3.2,7.936-7.68,7.936c-5.632,0-9.072-3.456-9.072-7.936v-72.656c0-4.608,3.456-7.936,9.072-7.936h44.912 c5.632,0,8.96,3.328,8.96,7.936c0,4.096-3.328,8.688-8.96,8.688H281.12V312.096z"/> </g><path style="fill:#CAD1D8;" d="M400,432H96v16h304c8.8,0,16-7.2,16-16v-16C416,424.8,408.8,432,400,432z"/></symbol><symbol id="html" viewBox="0 0 512 512"><title>html</title><path style="fill:#E2E5E7;" d="M128,0c-17.6,0-32,14.4-32,32v448c0,17.6,14.4,32,32,32h320c17.6,0,32-14.4,32-32V128L352,0H128z"/><path style="fill:#B0B7BD;" d="M384,128h96L352,0v96C352,113.6,366.4,128,384,128z"/><polygon style="fill:#CAD1D8;" points="480,224 384,128 480,128 "/><path style="fill:#84BD5A;" d="M416,416c0,8.8-7.2,16-16,16H48c-8.8,0-16-7.2-16-16V256c0-8.8,7.2-16,16-16h352c8.8,0,16,7.2,16,16 V416z"/><g> <path style="fill:#FFFFFF;" d="M55.68,376.064v-72.656c0-4.608,3.328-7.936,9.072-7.936c4.48,0,7.808,3.328,7.808,7.936v27.888 h41.696v-27.888c0-4.608,4.096-7.936,8.704-7.936c4.48,0,7.936,3.328,7.936,7.936v72.656c0,4.48-3.456,7.936-7.936,7.936 c-4.608,0-8.704-3.456-8.704-7.936v-28H72.56v28c0,4.48-3.328,7.936-7.808,7.936C59.008,384,55.68,380.544,55.68,376.064z"/> <path style="fill:#FFFFFF;" d="M172.784,311.472H150.4c-11.136,0-11.136-16.368,0-16.368h60.496c11.392,0,11.392,16.368,0,16.368 h-21.232v64.592c0,11.12-16.896,11.392-16.896,0v-64.592H172.784z"/> <path style="fill:#FFFFFF;" d="M248.688,327.84v47.328c0,5.648-4.608,8.832-9.2,8.832c-4.096,0-7.68-3.184-7.68-8.832v-72.016 c0-6.656,5.648-8.848,7.68-8.848c3.696,0,5.872,2.192,8.048,4.624l28.16,37.984l29.152-39.408c4.24-5.232,14.592-3.2,14.592,5.648 v72.016c0,5.648-3.6,8.832-7.68,8.832c-4.592,0-8.192-3.184-8.192-8.832V327.84l-21.232,26.864c-4.592,5.648-10.352,5.648-14.576,0 L248.688,327.84z"/> <path style="fill:#FFFFFF;" d="M337.264,303.152c0-4.224,3.584-7.808,8.064-7.808c4.096,0,7.552,3.6,7.552,7.808v64.096h34.8 c12.528,0,12.8,16.752,0,16.752h-42.336c-4.48,0-8.064-3.184-8.064-7.808v-73.04H337.264z"/> </g><path style="fill:#CAD1D8;" d="M400,432H96v16h304c8.8,0,16-7.2,16-16v-16C416,424.8,408.8,432,400,432z"/></symbol><symbol id="css" viewBox="0 0 512 512"><title>css</title><path style="fill:#E2E5E7;" d="M128,0c-17.6,0-32,14.4-32,32v448c0,17.6,14.4,32,32,32h320c17.6,0,32-14.4,32-32V128L352,0H128z"/><path style="fill:#B0B7BD;" d="M384,128h96L352,0v96C352,113.6,366.4,128,384,128z"/><polygon style="fill:#CAD1D8;" points="480,224 384,128 480,128 "/><path style="fill:#576D7E;" d="M416,416c0,8.8-7.2,16-16,16H48c-8.8,0-16-7.2-16-16V256c0-8.8,7.2-16,16-16h352c8.8,0,16,7.2,16,16 V416z"/><g> <path style="fill:#FFFFFF;" d="M103.936,339.088c0-24.688,15.472-45.92,44.912-45.92c11.12,0,19.952,3.328,29.296,11.392 c3.456,3.184,3.824,8.816,0.368,12.4c-3.456,3.056-8.704,2.688-11.76-0.384c-5.248-5.504-10.624-7.024-17.904-7.024 c-19.696,0-29.168,13.952-29.168,29.552c0,15.872,9.344,30.448,29.168,30.448c7.28,0,14.064-2.96,19.952-8.192 c3.968-3.072,9.472-1.552,11.76,1.536c2.048,2.816,3.072,7.552-1.408,12.016c-8.96,8.336-19.696,10-30.32,10 C117.888,384.912,103.936,363.776,103.936,339.088z"/> <path style="fill:#FFFFFF;" d="M195.712,314.656c2.944-24.816,40.416-29.28,58.08-15.712c8.704,7.024-0.512,18.16-8.192,12.528 c-9.472-6.016-30.96-8.832-33.648,4.464c-3.456,20.992,52.192,8.976,51.296,42.992c-0.896,32.496-47.968,33.264-65.632,18.672 c-4.24-3.44-4.096-9.056-1.792-12.528c3.328-3.312,7.024-4.464,11.392-0.896c10.48,7.168,37.488,12.544,39.392-5.648 C244.976,339.616,191.744,351.008,195.712,314.656z"/> <path style="fill:#FFFFFF;" d="M276.48,314.656c2.944-24.816,40.416-29.28,58.08-15.712c8.704,7.024-0.512,18.16-8.192,12.528 c-9.472-6.016-30.96-8.832-33.648,4.464c-3.456,20.992,52.192,8.976,51.296,42.992c-0.896,32.496-47.968,33.264-65.632,18.672 c-4.224-3.44-4.096-9.056-1.792-12.528c3.328-3.312,7.024-4.464,11.392-0.896c10.48,7.168,37.488,12.544,39.408-5.648 C325.728,339.616,272.512,351.008,276.48,314.656z"/> </g><path style="fill:#CAD1D8;" d="M400,432H96v16h304c8.8,0,16-7.2,16-16v-16C416,424.8,408.8,432,400,432z"/></symbol><symbol id="js" viewBox="0 0 512 512"><title>js</title><path style="fill:#E2E5E7;" d="M128,0c-17.6,0-32,14.4-32,32v448c0,17.6,14.4,32,32,32h320c17.6,0,32-14.4,32-32V128L352,0H128z"/><path style="fill:#B0B7BD;" d="M384,128h96L352,0v96C352,113.6,366.4,128,384,128z"/><polygon style="fill:#CAD1D8;" points="480,224 384,128 480,128 "/><path style="fill:#576D7E;" d="M416,416c0,8.8-7.2,16-16,16H48c-8.8,0-16-7.2-16-16V256c0-8.8,7.2-16,16-16h352c8.8,0,16,7.2,16,16 V416z"/><g> <path style="fill:#FFFFFF;" d="M193.744,303.152c0-10.752,16.896-10.752,16.896,0v50.528c0,20.08-9.6,32.24-31.712,32.24 c-10.88,0-19.968-2.96-27.888-13.168c-6.528-7.808,5.744-19.056,12.4-10.88c5.376,6.656,11.12,8.192,16.752,7.92 c7.168-0.256,13.44-3.456,13.568-16.112v-50.528H193.744z"/> <path style="fill:#FFFFFF;" d="M230.272,314.656c2.944-24.816,40.416-29.28,58.08-15.712c8.704,7.024-0.512,18.16-8.192,12.528 c-9.472-6.016-30.96-8.832-33.648,4.464c-3.456,20.992,52.192,8.976,51.296,42.992c-0.896,32.496-47.968,33.264-65.632,18.672 c-4.224-3.44-4.096-9.056-1.792-12.528c3.328-3.312,7.024-4.464,11.392-0.896c10.48,7.168,37.488,12.544,39.408-5.648 C279.52,339.616,226.304,351.008,230.272,314.656z"/> </g><path style="fill:#CAD1D8;" d="M400,432H96v16h304c8.8,0,16-7.2,16-16v-16C416,424.8,408.8,432,400,432z"/></symbol><symbol id="ai" viewBox="0 0 512 512"><title>ai</title><path style="fill:#E2E5E7;" d="M128,0c-17.6,0-32,14.4-32,32v448c0,17.6,14.4,32,32,32h320c17.6,0,32-14.4,32-32V128L352,0H128z"/><path style="fill:#B0B7BD;" d="M384,128h96L352,0v96C352,113.6,366.4,128,384,128z"/><polygon style="fill:#CAD1D8;" points="480,224 384,128 480,128 "/><path style="fill:#F7B84E;" d="M416,416c0,8.8-7.2,16-16,16H48c-8.8,0-16-7.2-16-16V256c0-8.8,7.2-16,16-16h352c8.8,0,16,7.2,16,16 V416z"/><g> <path style="fill:#FFFFFF;" d="M164.224,384c-4.096-2.32-6.656-6.912-4.096-12.288l36.704-71.76c3.456-6.784,12.672-7.04,15.872,0 l36.064,71.76c5.248,9.968-10.24,17.904-14.832,7.936l-5.648-11.264h-47.2l-5.504,11.264C173.552,384,168.816,384.912,164.224,384z M219.216,351.504l-14.448-31.6l-15.728,31.6H219.216z"/> <path style="fill:#FFFFFF;" d="M264.048,303.152c0-10.496,16.896-10.88,16.896,0v73.024c0,10.624-16.896,10.88-16.896,0V303.152z"/> </g><path style="fill:#CAD1D8;" d="M400,432H96v16h304c8.8,0,16-7.2,16-16v-16C416,424.8,408.8,432,400,432z"/></symbol><symbol id="psd" viewBox="0 0 512 512"><title>psd</title><path style="fill:#E2E5E7;" d="M128,0c-17.6,0-32,14.4-32,32v448c0,17.6,14.4,32,32,32h320c17.6,0,32-14.4,32-32V128L352,0H128z"/><path style="fill:#B0B7BD;" d="M384,128h96L352,0v96C352,113.6,366.4,128,384,128z"/><polygon style="fill:#CAD1D8;" points="480,224 384,128 480,128 "/><path style="fill:#50BEE8;" d="M416,416c0,8.8-7.2,16-16,16H48c-8.8,0-16-7.2-16-16V256c0-8.8,7.2-16,16-16h352c8.8,0,16,7.2,16,16 V416z"/><g> <path style="fill:#FFFFFF;" d="M100,303.152c0-4.224,3.328-8.848,8.688-8.848h29.552c16.64,0,31.616,11.136,31.616,32.496 c0,20.224-14.976,31.472-31.616,31.472h-21.36v16.896c0,5.648-3.584,8.832-8.192,8.832c-4.224,0-8.688-3.184-8.688-8.832V303.152z M116.88,310.432v31.856h21.36c8.576,0,15.36-7.552,15.36-15.488c0-8.96-6.784-16.368-15.36-16.368L116.88,310.432L116.88,310.432z "/> <path style="fill:#FFFFFF;" d="M184.32,314.656c2.944-24.816,40.416-29.28,58.08-15.712c8.704,7.024-0.512,18.16-8.192,12.528 c-9.472-6.016-30.96-8.832-33.648,4.464c-3.456,20.992,52.192,8.976,51.296,42.992c-0.896,32.496-47.968,33.264-65.632,18.672 c-4.24-3.44-4.096-9.056-1.792-12.528c3.328-3.312,7.024-4.464,11.392-0.896c10.48,7.168,37.488,12.544,39.392-5.648 C233.568,339.616,180.336,351.008,184.32,314.656z"/> <path style="fill:#FFFFFF;" d="M278.24,384c-4.224,0-8.832-2.32-8.832-7.936v-72.656c0-4.608,4.608-7.936,8.832-7.936h29.296 C366,295.472,364.72,384,308.688,384H278.24z M286.304,311.072v57.312h21.232c34.544,0,36.08-57.312,0-57.312H286.304z"/> </g><path style="fill:#CAD1D8;" d="M400,432H96v16h304c8.8,0,16-7.2,16-16v-16C416,424.8,408.8,432,400,432z"/></symbol><symbol id="mp3" viewBox="0 0 512 512"><title>mp3</title><path style="fill:#E2E5E7;" d="M128,0c-17.6,0-32,14.4-32,32v448c0,17.616,14.4,32,32,32h320c17.6,0,32-14.384,32-32V128L352,0H128z "/><path style="fill:#B0B7BD;" d="M384,128h96L352,0v96C352,113.6,366.4,128,384,128z"/><polygon style="fill:#CAD1D8;" points="480,224 384,128 480,128 "/><path style="fill:#50BEE8;" d="M416,416c0,8.8-7.2,16-16,16H48c-8.8,0-16-7.2-16-16V256c0-8.8,7.2-16,16-16h352c8.8,0,16,7.2,16,16 V416z"/><g> <path style="fill:#FFFFFF;" d="M117.184,327.84v47.344c0,5.632-4.592,8.832-9.216,8.832c-4.096,0-7.664-3.2-7.664-8.832v-72.032 c0-6.64,5.632-8.832,7.664-8.832c3.712,0,5.888,2.192,8.064,4.608l28.16,38l29.152-39.408c4.24-5.248,14.592-3.2,14.592,5.632 v72.032c0,5.632-3.6,8.832-7.68,8.832c-4.592,0-8.192-3.2-8.192-8.832V327.84l-21.232,26.88c-4.592,5.632-10.352,5.632-14.576,0 L117.184,327.84z"/> <path style="fill:#FFFFFF;" d="M210.288,303.152c0-4.224,3.328-8.832,8.704-8.832h29.552c16.64,0,31.616,11.136,31.616,32.496 c0,20.224-14.976,31.472-31.616,31.472h-21.36v16.896c0,5.632-3.584,8.832-8.192,8.832c-4.224,0-8.704-3.2-8.704-8.832V303.152z M227.168,310.448v31.856h21.36c8.576,0,15.36-7.552,15.36-15.488c0-8.96-6.784-16.368-15.36-16.368L227.168,310.448 L227.168,310.448z"/> <path style="fill:#FFFFFF;" d="M322.064,311.472h-21.872c-10.736,0-10.096-15.984,0-15.984h39.152c7.792,0,11.376,8.96,5.632,14.72 l-21.232,19.824c15.616-1.152,27.888,10.48,27.888,24.816c0,15.728-11.136,29.168-34.544,29.168 c-10.24,0-20.336-4.224-26.224-13.44c-6.144-9.072,7.024-17.776,13.936-8.832c3.328,4.352,8.704,6.528,14.448,6.528 c7.808,0,15.488-3.328,15.488-13.44c0-13.296-16.256-11.248-25.072-10.352c-10.752,2.048-13.936-9.6-7.664-14.448L322.064,311.472z "/> </g><path style="fill:#CAD1D8;" d="M400,432H96v16h304c8.8,0,16-7.2,16-16v-16C416,424.8,408.8,432,400,432z"/></symbol><symbol id="svg" viewBox="0 0 512 512"><title>svg</title><path style="fill:#E2E5E7;" d="M128,0c-17.6,0-32,14.4-32,32v448c0,17.6,14.4,32,32,32h320c17.6,0,32-14.4,32-32V128L352,0H128z"/><path style="fill:#B0B7BD;" d="M384,128h96L352,0v96C352,113.6,366.4,128,384,128z"/><polygon style="fill:#CAD1D8;" points="480,224 384,128 480,128 "/><path style="fill:#F7B84E;" d="M416,416c0,8.8-7.2,16-16,16H48c-8.8,0-16-7.2-16-16V256c0-8.8,7.2-16,16-16h352c8.8,0,16,7.2,16,16 V416z"/><g> <path style="fill:#FFFFFF;" d="M96.816,314.656c2.944-24.816,40.416-29.28,58.08-15.712c8.704,7.024-0.512,18.16-8.192,12.528 c-9.472-6.016-30.96-8.832-33.648,4.464c-3.456,20.992,52.192,8.976,51.312,42.992c-0.896,32.496-47.984,33.264-65.648,18.672 c-4.224-3.44-4.096-9.056-1.792-12.528c3.328-3.312,7.04-4.464,11.392-0.896c10.48,7.168,37.488,12.544,39.392-5.648 C146.064,339.616,92.848,351.008,96.816,314.656z"/> <path style="fill:#FFFFFF;" d="M209.12,378.256l-33.776-70.752c-4.992-10.112,10.112-18.416,15.728-7.808l11.392,25.712 l14.704,33.776l14.448-33.776l11.392-25.712c5.12-9.712,19.952-3.584,15.616,7.04L226,378.256 C223.056,386.32,213.984,388.224,209.12,378.256z"/> <path style="fill:#FFFFFF;" d="M345.76,374.16c-9.088,7.536-20.224,10.752-31.472,10.752c-26.88,0-45.936-15.36-45.936-45.808 c0-25.84,20.096-45.92,47.072-45.92c10.112,0,21.232,3.456,29.168,11.264c7.792,7.664-3.456,19.056-11.12,12.288 c-4.736-4.624-11.392-8.064-18.048-8.064c-15.472,0-30.432,12.4-30.432,30.432c0,18.944,12.528,30.448,29.296,30.448 c7.792,0,14.448-2.304,19.184-5.76V348.08h-19.184c-11.392,0-10.24-15.632,0-15.632h25.584c4.736,0,9.072,3.6,9.072,7.568v27.248 C348.96,369.552,347.936,371.712,345.76,374.16z"/> </g><path style="fill:#CAD1D8;" d="M400,432H96v16h304c8.8,0,16-7.2,16-16v-16C416,424.8,408.8,432,400,432z"/></symbol><symbol id="avi" viewBox="0 0 512 512"><title>avi</title><path style="fill:#E2E5E7;" d="M128,0c-17.6,0-32,14.4-32,32v448c0,17.6,14.4,32,32,32h320c17.6,0,32-14.4,32-32V128L352,0H128z"/><path style="fill:#B0B7BD;" d="M384,128h96L352,0v96C352,113.6,366.4,128,384,128z"/><polygon style="fill:#CAD1D8;" points="480,224 384,128 480,128 "/><path style="fill:#F15642;" d="M416,416c0,8.8-7.2,16-16,16H48c-8.8,0-16-7.2-16-16V256c0-8.8,7.2-16,16-16h352c8.8,0,16,7.2,16,16 V416z"/><g> <path style="fill:#FFFFFF;" d="M121.408,384.016c-4.096-2.32-6.656-6.912-4.096-12.288l36.72-71.76 c3.456-6.784,12.656-7.04,15.856,0l36.08,71.76c5.248,9.968-10.24,17.904-14.848,7.92l-5.632-11.248h-47.2l-5.488,11.264 C130.752,384.016,126.016,384.912,121.408,384.016z M176.416,351.52l-14.464-31.6l-15.728,31.6H176.416z"/> <path style="fill:#FFFFFF;" d="M241.6,378.256l-33.776-70.736c-4.992-10.112,10.112-18.416,15.728-7.808l11.392,25.712 l14.704,33.76l14.448-33.76l11.392-25.712c5.12-9.712,19.952-3.584,15.616,7.04l-32.624,71.504 C255.536,386.32,246.448,388.24,241.6,378.256z"/> <path style="fill:#FFFFFF;" d="M306.88,303.152c0-10.48,16.896-10.88,16.896,0v73.04c0,10.624-16.896,10.88-16.896,0V303.152z"/> </g><path style="fill:#CAD1D8;" d="M400,432H96v16h304c8.8,0,16-7.2,16-16v-16C416,424.8,408.8,432,400,432z"/></symbol><symbol id="xml" viewBox="0 0 512 512"><title>xml</title><path style="fill:#E2E5E7;" d="M128,0c-17.6,0-32,14.4-32,32v448c0,17.6,14.4,32,32,32h320c17.6,0,32-14.4,32-32V128L352,0H128z"/><path style="fill:#B0B7BD;" d="M384,128h96L352,0v96C352,113.6,366.4,128,384,128z"/><polygon style="fill:#CAD1D8;" points="480,224 384,128 480,128 "/><path style="fill:#50BEE8;" d="M416,416c0,8.8-7.2,16-16,16H48c-8.8,0-16-7.2-16-16V256c0-8.8,7.2-16,16-16h352c8.8,0,16,7.2,16,16 V416z"/><g> <path style="fill:#FFFFFF;" d="M131.28,326.176l22.272-27.888c6.64-8.688,19.568,2.432,12.288,10.752 c-7.664,9.088-15.728,18.944-23.424,29.024l26.112,32.496c7.024,9.6-7.04,18.816-13.952,9.344l-23.536-30.192l-23.152,30.832 c-6.528,9.328-20.992-1.152-13.68-9.856l25.712-32.624c-8.064-10.096-15.872-19.936-23.664-29.024 c-8.064-9.6,6.912-19.44,12.784-10.48L131.28,326.176z"/> <path style="fill:#FFFFFF;" d="M201.264,327.84v47.328c0,5.648-4.608,8.832-9.2,8.832c-4.096,0-7.68-3.184-7.68-8.832v-72.016 c0-6.656,5.648-8.848,7.68-8.848c3.696,0,5.872,2.192,8.048,4.624l28.16,37.984l29.152-39.408c4.24-5.232,14.592-3.2,14.592,5.648 v72.016c0,5.648-3.584,8.832-7.664,8.832c-4.608,0-8.192-3.184-8.192-8.832V327.84l-21.248,26.864 c-4.592,5.648-10.352,5.648-14.576,0L201.264,327.84z"/> <path style="fill:#FFFFFF;" d="M294.288,303.152c0-4.224,3.584-7.808,8.064-7.808c4.096,0,7.552,3.6,7.552,7.808v64.096h34.8 c12.528,0,12.8,16.752,0,16.752h-42.336c-4.48,0-8.064-3.184-8.064-7.808v-73.04H294.288z"/> </g><path style="fill:#CAD1D8;" d="M400,432H96v16h304c8.8,0,16-7.2,16-16v-16C416,424.8,408.8,432,400,432z"/></symbol><symbol id="txt" viewBox="0 0 512 512"><title>txt</title><path style="fill:#E2E5E7;" d="M128,0c-17.6,0-32,14.4-32,32v448c0,17.6,14.4,32,32,32h320c17.6,0,32-14.4,32-32V128L352,0H128z"/><path style="fill:#B0B7BD;" d="M384,128h96L352,0v96C352,113.6,366.4,128,384,128z"/><polygon style="fill:#CAD1D8;" points="480,224 384,128 480,128 "/><path style="fill:#576D7E;" d="M416,416c0,8.8-7.2,16-16,16H48c-8.8,0-16-7.2-16-16V256c0-8.8,7.2-16,16-16h352c8.8,0,16,7.2,16,16 V416z"/><g> <path style="fill:#FFFFFF;" d="M132.784,311.472H110.4c-11.136,0-11.136-16.368,0-16.368h60.512c11.392,0,11.392,16.368,0,16.368 h-21.248v64.592c0,11.12-16.896,11.392-16.896,0v-64.592H132.784z"/> <path style="fill:#FFFFFF;" d="M224.416,326.176l22.272-27.888c6.656-8.688,19.568,2.432,12.288,10.752 c-7.68,9.088-15.728,18.944-23.424,29.024l26.112,32.496c7.024,9.6-7.04,18.816-13.952,9.344l-23.536-30.192l-23.152,30.832 c-6.528,9.328-20.992-1.152-13.68-9.856l25.696-32.624c-8.048-10.096-15.856-19.936-23.664-29.024 c-8.064-9.6,6.912-19.44,12.784-10.48L224.416,326.176z"/> <path style="fill:#FFFFFF;" d="M298.288,311.472H275.92c-11.136,0-11.136-16.368,0-16.368h60.496c11.392,0,11.392,16.368,0,16.368 h-21.232v64.592c0,11.12-16.896,11.392-16.896,0V311.472z"/> </g><path style="fill:#CAD1D8;" d="M400,432H96v16h304c8.8,0,16-7.2,16-16v-16C416,424.8,408.8,432,400,432z"/></symbol><symbol id="php" viewBox="0 0 512 512"><title>php</title><path style="fill:#E2E5E7;" d="M128,0c-17.6,0-32,14.4-32,32v448c0,17.6,14.4,32,32,32h320c17.6,0,32-14.4,32-32V128L352,0H128z"/><path style="fill:#B0B7BD;" d="M384,128h96L352,0v96C352,113.6,366.4,128,384,128z"/><polygon style="fill:#CAD1D8;" points="480,224 384,128 480,128 "/><path style="fill:#576D7E;" d="M416,416c0,8.8-7.2,16-16,16H48c-8.8,0-16-7.2-16-16V256c0-8.8,7.2-16,16-16h352c8.8,0,16,7.2,16,16 V416z"/><g> <path style="fill:#FFFFFF;" d="M102.912,303.152c0-4.224,3.328-8.848,8.704-8.848h29.552c16.64,0,31.616,11.136,31.616,32.496 c0,20.224-14.976,31.472-31.616,31.472h-21.376v16.896c0,5.648-3.568,8.832-8.176,8.832c-4.224,0-8.704-3.184-8.704-8.832 C102.912,375.168,102.912,303.152,102.912,303.152z M119.792,310.432v31.856h21.36c8.576,0,15.36-7.552,15.36-15.488 c0-8.96-6.784-16.368-15.36-16.368L119.792,310.432L119.792,310.432z"/> <path style="fill:#FFFFFF;" d="M186.48,376.064v-72.656c0-4.608,3.328-7.936,9.088-7.936c4.464,0,7.792,3.328,7.792,7.936v27.888 h41.696v-27.888c0-4.608,4.096-7.936,8.704-7.936c4.464,0,7.936,3.328,7.936,7.936v72.656c0,4.48-3.472,7.936-7.936,7.936 c-4.608,0-8.704-3.456-8.704-7.936v-28H203.36v28c0,4.48-3.328,7.936-7.792,7.936C189.808,384,186.48,380.544,186.48,376.064z"/> <path style="fill:#FFFFFF;" d="M279.664,303.152c0-4.224,3.328-8.848,8.704-8.848h29.552c16.64,0,31.616,11.136,31.616,32.496 c0,20.224-14.976,31.472-31.616,31.472h-21.36v16.896c0,5.648-3.584,8.832-8.192,8.832c-4.224,0-8.704-3.184-8.704-8.832V303.152 L279.664,303.152z M296.56,310.432v31.856h21.36c8.576,0,15.36-7.552,15.36-15.488c0-8.96-6.784-16.368-15.36-16.368 L296.56,310.432L296.56,310.432z"/> </g><path style="fill:#CAD1D8;" d="M400,432H96v16h304c8.8,0,16-7.2,16-16v-16C416,424.8,408.8,432,400,432z"/></symbol><symbol id="zip" viewBox="0 0 512 512"><title>zip</title><path style="fill:#E2E5E7;" d="M128,0c-17.6,0-32,14.4-32,32v448c0,17.6,14.4,32,32,32h320c17.6,0,32-14.4,32-32V128L352,0H128z"/><path style="fill:#B0B7BD;" d="M384,128h96L352,0v96C352,113.6,366.4,128,384,128z"/><polygon style="fill:#CAD1D8;" points="480,224 384,128 480,128 "/><path style="fill:#84BD5A;" d="M416,416c0,8.8-7.2,16-16,16H48c-8.8,0-16-7.2-16-16V256c0-8.8,7.2-16,16-16h352c8.8,0,16,7.2,16,16 V416z"/><g> <path style="fill:#FFFFFF;" d="M132.64,384c-8.064,0-11.264-7.792-6.656-13.296l45.552-60.512h-37.76 c-11.12,0-10.224-15.712,0-15.712h51.568c9.712,0,12.528,9.184,5.632,16.624l-43.632,56.656h41.584 c10.24,0,11.52,16.256-1.008,16.256h-55.28V384z"/> <path style="fill:#FFFFFF;" d="M212.048,303.152c0-10.496,16.896-10.88,16.896,0v73.04c0,10.608-16.896,10.88-16.896,0V303.152z"/> <path style="fill:#FFFFFF;" d="M251.616,303.152c0-4.224,3.328-8.832,8.704-8.832h29.552c16.64,0,31.616,11.136,31.616,32.48 c0,20.224-14.976,31.488-31.616,31.488h-21.36v16.896c0,5.632-3.584,8.816-8.192,8.816c-4.224,0-8.704-3.184-8.704-8.816 L251.616,303.152L251.616,303.152z M268.496,310.432v31.872h21.36c8.576,0,15.36-7.568,15.36-15.504 c0-8.944-6.784-16.368-15.36-16.368H268.496z"/> </g><path style="fill:#CAD1D8;" d="M400,432H96v16h304c8.8,0,16-7.2,16-16v-16C416,424.8,408.8,432,400,432z"/></symbol><symbol id="png" viewBox="0 0 512 512"><title>png</title><path style="fill:#E2E5E7;" d="M128,0c-17.6,0-32,14.4-32,32v448c0,17.6,14.4,32,32,32h320c17.6,0,32-14.4,32-32V128L352,0H128z"/><path style="fill:#B0B7BD;" d="M384,128h96L352,0v96C352,113.6,366.4,128,384,128z"/><polygon style="fill:#CAD1D8;" points="480,224 384,128 480,128 "/><path style="fill:#A066AA;" d="M416,416c0,8.8-7.2,16-16,16H48c-8.8,0-16-7.2-16-16V256c0-8.8,7.2-16,16-16h352c8.8,0,16,7.2,16,16 V416z"/><g> <path style="fill:#FFFFFF;" d="M92.816,303.152c0-4.224,3.312-8.848,8.688-8.848h29.568c16.624,0,31.6,11.136,31.6,32.496 c0,20.224-14.976,31.472-31.6,31.472H109.68v16.896c0,5.648-3.552,8.832-8.176,8.832c-4.224,0-8.688-3.184-8.688-8.832 C92.816,375.168,92.816,303.152,92.816,303.152z M109.68,310.432v31.856h21.376c8.56,0,15.344-7.552,15.344-15.488 c0-8.96-6.784-16.368-15.344-16.368L109.68,310.432L109.68,310.432z"/> <path style="fill:#FFFFFF;" d="M178.976,304.432c0-4.624,1.024-9.088,7.68-9.088c4.592,0,5.632,1.152,9.072,4.464l42.336,52.976 v-49.632c0-4.224,3.696-8.848,8.064-8.848c4.608,0,9.072,4.624,9.072,8.848v72.016c0,5.648-3.456,7.792-6.784,8.832 c-4.464,0-6.656-1.024-10.352-4.464l-42.336-53.744v49.392c0,5.648-3.456,8.832-8.064,8.832s-8.704-3.184-8.704-8.832v-70.752 H178.976z"/> <path style="fill:#FFFFFF;" d="M351.44,374.16c-9.088,7.536-20.224,10.752-31.472,10.752c-26.88,0-45.936-15.36-45.936-45.808 c0-25.84,20.096-45.92,47.072-45.92c10.112,0,21.232,3.456,29.168,11.264c7.808,7.664-3.456,19.056-11.12,12.288 c-4.736-4.624-11.392-8.064-18.048-8.064c-15.472,0-30.432,12.4-30.432,30.432c0,18.944,12.528,30.448,29.296,30.448 c7.792,0,14.448-2.304,19.184-5.76V348.08h-19.184c-11.392,0-10.24-15.632,0-15.632h25.584c4.736,0,9.072,3.6,9.072,7.568v27.248 C354.624,369.552,353.616,371.712,351.44,374.16z"/> </g><path style="fill:#CAD1D8;" d="M400,432H96v16h304c8.8,0,16-7.2,16-16v-16C416,424.8,408.8,432,400,432z"/></symbol><symbol id="jpg" viewBox="0 0 512 512"><title>jpg</title><path style="fill:#E2E5E7;" d="M128,0c-17.6,0-32,14.4-32,32v448c0,17.6,14.4,32,32,32h320c17.6,0,32-14.4,32-32V128L352,0H128z"/><path style="fill:#B0B7BD;" d="M384,128h96L352,0v96C352,113.6,366.4,128,384,128z"/><polygon style="fill:#CAD1D8;" points="480,224 384,128 480,128 "/><path style="fill:#50BEE8;" d="M416,416c0,8.8-7.2,16-16,16H48c-8.8,0-16-7.2-16-16V256c0-8.8,7.2-16,16-16h352c8.8,0,16,7.2,16,16 V416z"/><g> <path style="fill:#FFFFFF;" d="M141.968,303.152c0-10.752,16.896-10.752,16.896,0v50.528c0,20.096-9.6,32.256-31.728,32.256 c-10.88,0-19.952-2.96-27.888-13.184c-6.528-7.808,5.76-19.056,12.416-10.88c5.376,6.656,11.136,8.192,16.752,7.936 c7.152-0.256,13.44-3.472,13.568-16.128v-50.528H141.968z"/> <path style="fill:#FFFFFF;" d="M181.344,303.152c0-4.224,3.328-8.832,8.704-8.832H219.6c16.64,0,31.616,11.136,31.616,32.48 c0,20.224-14.976,31.488-31.616,31.488h-21.36v16.896c0,5.632-3.584,8.816-8.192,8.816c-4.224,0-8.704-3.184-8.704-8.816 L181.344,303.152L181.344,303.152z M198.24,310.432v31.872h21.36c8.576,0,15.36-7.568,15.36-15.504 c0-8.944-6.784-16.368-15.36-16.368H198.24z"/> <path style="fill:#FFFFFF;" d="M342.576,374.16c-9.088,7.552-20.224,10.752-31.472,10.752c-26.88,0-45.936-15.344-45.936-45.808 c0-25.824,20.096-45.904,47.072-45.904c10.112,0,21.232,3.44,29.168,11.248c7.792,7.664-3.456,19.056-11.12,12.288 c-4.736-4.608-11.392-8.064-18.048-8.064c-15.472,0-30.432,12.4-30.432,30.432c0,18.944,12.528,30.464,29.296,30.464 c7.792,0,14.448-2.32,19.184-5.76V348.08h-19.184c-11.392,0-10.24-15.616,0-15.616h25.584c4.736,0,9.072,3.584,9.072,7.552v27.248 C345.76,369.568,344.752,371.712,342.576,374.16z"/> </g><path style="fill:#CAD1D8;" d="M400,432H96v16h304c8.8,0,16-7.2,16-16v-16C416,424.8,408.8,432,400,432z"/></symbol><symbol id="ppt" viewBox="0 0 512 512"><title>ppt</title><path style="fill:#E2E5E7;" d="M128,0c-17.6,0-32,14.4-32,32v448c0,17.6,14.4,32,32,32h320c17.6,0,32-14.4,32-32V128L352,0H128z"/><path style="fill:#B0B7BD;" d="M384,128h96L352,0v96C352,113.6,366.4,128,384,128z"/><polygon style="fill:#CAD1D8;" points="480,224 384,128 480,128 "/><path style="fill:#F15642;" d="M416,416c0,8.8-7.2,16-16,16H48c-8.8,0-16-7.2-16-16V256c0-8.8,7.2-16,16-16h352c8.8,0,16,7.2,16,16 V416z"/><g> <path style="fill:#FFFFFF;" d="M105.456,303.152c0-4.224,3.328-8.832,8.688-8.832h29.552c16.64,0,31.616,11.136,31.616,32.48 c0,20.224-14.976,31.488-31.616,31.488h-21.36v16.896c0,5.632-3.568,8.816-8.176,8.816c-4.224,0-8.688-3.184-8.688-8.816v-72.032 H105.456z M122.336,310.432v31.872h21.36c8.576,0,15.36-7.568,15.36-15.504c0-8.944-6.784-16.368-15.36-16.368H122.336z"/> <path style="fill:#FFFFFF;" d="M191.616,303.152c0-4.224,3.328-8.832,8.704-8.832h29.552c16.64,0,31.616,11.136,31.616,32.48 c0,20.224-14.976,31.488-31.616,31.488h-21.36v16.896c0,5.632-3.584,8.816-8.192,8.816c-4.224,0-8.704-3.184-8.704-8.816V303.152z M208.496,310.432v31.872h21.36c8.576,0,15.36-7.568,15.36-15.504c0-8.944-6.784-16.368-15.36-16.368H208.496z"/> <path style="fill:#FFFFFF;" d="M301.68,311.472h-22.368c-11.136,0-11.136-16.368,0-16.368h60.496c11.392,0,11.392,16.368,0,16.368 h-21.232v64.608c0,11.12-16.896,11.392-16.896,0V311.472z"/> </g><path style="fill:#CAD1D8;" d="M400,432H96v16h304c8.8,0,16-7.2,16-16v-16C416,424.8,408.8,432,400,432z"/></symbol><symbol id="xls" viewBox="0 0 512 512"><title>xls</title><path style="fill:#E2E5E7;" d="M128,0c-17.6,0-32,14.4-32,32v448c0,17.6,14.4,32,32,32h320c17.6,0,32-14.4,32-32V128L352,0H128z"/><path style="fill:#B0B7BD;" d="M384,128h96L352,0v96C352,113.6,366.4,128,384,128z"/><polygon style="fill:#CAD1D8;" points="480,224 384,128 480,128 "/><path style="fill:#84BD5A;" d="M416,416c0,8.8-7.2,16-16,16H48c-8.8,0-16-7.2-16-16V256c0-8.8,7.2-16,16-16h352c8.8,0,16,7.2,16,16 V416z"/><g> <path style="fill:#FFFFFF;" d="M144.336,326.192l22.256-27.888c6.656-8.704,19.584,2.416,12.288,10.736 c-7.664,9.088-15.728,18.944-23.408,29.04l26.096,32.496c7.04,9.6-7.024,18.8-13.936,9.328l-23.552-30.192l-23.152,30.848 c-6.528,9.328-20.992-1.152-13.696-9.856l25.712-32.624c-8.064-10.112-15.872-19.952-23.664-29.04 c-8.048-9.6,6.912-19.44,12.8-10.464L144.336,326.192z"/> <path style="fill:#FFFFFF;" d="M197.36,303.152c0-4.224,3.584-7.808,8.064-7.808c4.096,0,7.552,3.6,7.552,7.808v64.096h34.8 c12.528,0,12.8,16.752,0,16.752H205.44c-4.48,0-8.064-3.184-8.064-7.792v-73.056H197.36z"/> <path style="fill:#FFFFFF;" d="M272.032,314.672c2.944-24.832,40.416-29.296,58.08-15.728c8.704,7.024-0.512,18.16-8.192,12.528 c-9.472-6-30.96-8.816-33.648,4.464c-3.456,20.992,52.192,8.976,51.296,43.008c-0.896,32.496-47.968,33.248-65.632,18.672 c-4.24-3.456-4.096-9.072-1.792-12.544c3.328-3.312,7.024-4.464,11.392-0.88c10.48,7.152,37.488,12.528,39.392-5.648 C321.28,339.632,268.064,351.008,272.032,314.672z"/> </g><path style="fill:#CAD1D8;" d="M400,432H96v16h304c8.8,0,16-7.2,16-16v-16C416,424.8,408.8,432,400,432z"/></symbol><symbol id="doc" viewBox="0 0 512 512"><title>doc</title><path style="fill:#E2E5E7;" d="M128,0c-17.6,0-32,14.4-32,32v448c0,17.6,14.4,32,32,32h320c17.6,0,32-14.4,32-32V128L352,0H128z"/><path style="fill:#B0B7BD;" d="M384,128h96L352,0v96C352,113.6,366.4,128,384,128z"/><polygon style="fill:#CAD1D8;" points="480,224 384,128 480,128 "/><path style="fill:#50BEE8;" d="M416,416c0,8.8-7.2,16-16,16H48c-8.8,0-16-7.2-16-16V256c0-8.8,7.2-16,16-16h352c8.8,0,16,7.2,16,16 V416z"/><g> <path style="fill:#FFFFFF;" d="M92.576,384c-4.224,0-8.832-2.32-8.832-7.936v-72.656c0-4.608,4.608-7.936,8.832-7.936h29.296 c58.464,0,57.168,88.528,1.136,88.528H92.576z M100.64,311.072v57.312h21.232c34.544,0,36.064-57.312,0-57.312H100.64z"/> <path style="fill:#FFFFFF;" d="M228,385.28c-23.664,1.024-48.24-14.72-48.24-46.064c0-31.472,24.56-46.944,48.24-46.944 c22.384,1.136,45.792,16.624,45.792,46.944C273.792,369.552,250.384,385.28,228,385.28z M226.592,308.912 c-14.336,0-29.936,10.112-29.936,30.32c0,20.096,15.616,30.336,29.936,30.336c14.72,0,30.448-10.24,30.448-30.336 C257.04,319.008,241.312,308.912,226.592,308.912z"/> <path style="fill:#FFFFFF;" d="M288.848,339.088c0-24.688,15.488-45.92,44.912-45.92c11.136,0,19.968,3.328,29.296,11.392 c3.456,3.184,3.84,8.816,0.384,12.4c-3.456,3.056-8.704,2.688-11.776-0.384c-5.232-5.504-10.608-7.024-17.904-7.024 c-19.696,0-29.152,13.952-29.152,29.552c0,15.872,9.328,30.448,29.152,30.448c7.296,0,14.08-2.96,19.968-8.192 c3.952-3.072,9.456-1.552,11.76,1.536c2.048,2.816,3.056,7.552-1.408,12.016c-8.96,8.336-19.696,10-30.336,10 C302.8,384.912,288.848,363.776,288.848,339.088z"/> </g><path style="fill:#CAD1D8;" d="M400,432H96v16h304c8.8,0,16-7.2,16-16v-16C416,424.8,408.8,432,400,432z"/></symbol><symbol id="pdf" viewBox="0 0 512 512"><title>pdf</title><path style="fill:#E2E5E7;" d="M128,0c-17.6,0-32,14.4-32,32v448c0,17.6,14.4,32,32,32h320c17.6,0,32-14.4,32-32V128L352,0H128z"/><path style="fill:#B0B7BD;" d="M384,128h96L352,0v96C352,113.6,366.4,128,384,128z"/><polygon style="fill:#CAD1D8;" points="480,224 384,128 480,128 "/><path style="fill:#F15642;" d="M416,416c0,8.8-7.2,16-16,16H48c-8.8,0-16-7.2-16-16V256c0-8.8,7.2-16,16-16h352c8.8,0,16,7.2,16,16 V416z"/><g> <path style="fill:#FFFFFF;" d="M101.744,303.152c0-4.224,3.328-8.832,8.688-8.832h29.552c16.64,0,31.616,11.136,31.616,32.48 c0,20.224-14.976,31.488-31.616,31.488h-21.36v16.896c0,5.632-3.584,8.816-8.192,8.816c-4.224,0-8.688-3.184-8.688-8.816V303.152z M118.624,310.432v31.872h21.36c8.576,0,15.36-7.568,15.36-15.504c0-8.944-6.784-16.368-15.36-16.368H118.624z"/> <path style="fill:#FFFFFF;" d="M196.656,384c-4.224,0-8.832-2.304-8.832-7.92v-72.672c0-4.592,4.608-7.936,8.832-7.936h29.296 c58.464,0,57.184,88.528,1.152,88.528H196.656z M204.72,311.088V368.4h21.232c34.544,0,36.08-57.312,0-57.312H204.72z"/> <path style="fill:#FFFFFF;" d="M303.872,312.112v20.336h32.624c4.608,0,9.216,4.608,9.216,9.072c0,4.224-4.608,7.68-9.216,7.68 h-32.624v26.864c0,4.48-3.184,7.92-7.664,7.92c-5.632,0-9.072-3.44-9.072-7.92v-72.672c0-4.592,3.456-7.936,9.072-7.936h44.912 c5.632,0,8.96,3.344,8.96,7.936c0,4.096-3.328,8.704-8.96,8.704h-37.248V312.112z"/> </g><path style="fill:#CAD1D8;" d="M400,432H96v16h304c8.8,0,16-7.2,16-16v-16C416,424.8,408.8,432,400,432z"/></symbol></svg>